<svg width="174" height="53" viewBox="0 0 174 53" fill="none" xmlns="http://www.w3.org/2000/svg">
<circle cx="27.034" cy="26.4895" r="26.3039" fill="#7A64B5"/>
<path d="M114.29 42.0482H114.793V37.4927H114.29V36.8396H116.66C116.939 36.8396 117.185 36.8786 117.397 36.9568C117.615 37.0349 117.796 37.141 117.942 37.275C118.092 37.409 118.204 37.5709 118.277 37.7607C118.355 37.9449 118.394 38.1459 118.394 38.3636V38.4641C118.394 38.626 118.369 38.7739 118.318 38.9079C118.268 39.0419 118.198 39.1619 118.109 39.268C118.02 39.3741 117.914 39.4662 117.791 39.5444C117.674 39.6169 117.545 39.6728 117.406 39.7118V39.8123C117.685 39.8905 117.919 40.0412 118.109 40.2645C118.299 40.4822 118.394 40.7502 118.394 41.0684V41.1689C118.394 41.3866 118.355 41.5904 118.277 41.7802C118.204 41.9644 118.092 42.1263 117.942 42.2659C117.796 42.3999 117.615 42.506 117.397 42.5841C117.185 42.6623 116.939 42.7013 116.66 42.7013H114.29V42.0482ZM115.496 42.0482H116.61C116.939 42.0482 117.207 41.9672 117.414 41.8053C117.621 41.6379 117.724 41.409 117.724 41.1187V41.0684C117.724 40.767 117.626 40.5297 117.431 40.3566C117.235 40.178 116.97 40.0887 116.635 40.0887H115.496V42.0482ZM115.496 39.4355H116.635C116.97 39.4355 117.235 39.349 117.431 39.1759C117.626 39.0028 117.724 38.7656 117.724 38.4641V38.4139C117.724 38.1292 117.621 37.9058 117.414 37.7439C117.207 37.5765 116.939 37.4927 116.61 37.4927H115.496V39.4355Z" fill="white"/>
<path d="M122.684 41.9477H122.583C122.449 42.2157 122.273 42.4278 122.056 42.5841C121.838 42.7404 121.562 42.8186 121.227 42.8186C120.998 42.8186 120.786 42.7795 120.59 42.7013C120.4 42.6288 120.236 42.5171 120.096 42.3664C119.962 42.2157 119.856 42.0286 119.778 41.8053C119.705 41.582 119.669 41.3224 119.669 41.0266V38.5479H120.322V40.9428C120.322 41.3783 120.412 41.6965 120.59 41.8974C120.769 42.0984 121.042 42.1989 121.411 42.1989C121.807 42.1989 122.117 42.0649 122.34 41.797C122.569 41.5234 122.684 41.1605 122.684 40.7083V38.5479H123.337V43.723C123.337 43.9128 123.276 44.0691 123.153 44.1919C123.035 44.3147 122.882 44.3761 122.692 44.3761H120.322V43.7732H122.458C122.608 43.7732 122.684 43.6895 122.684 43.522V41.9477Z" fill="white"/>
<path d="M132.763 38.6316C132.763 38.3971 132.671 38.1934 132.486 38.0203C132.308 37.8472 132.054 37.7607 131.724 37.7607C131.445 37.7607 131.225 37.8193 131.063 37.9365C130.901 38.0482 130.82 38.2017 130.82 38.3971C130.82 38.4976 130.84 38.5897 130.879 38.6735C130.918 38.7516 130.985 38.8242 131.08 38.8912C131.18 38.9526 131.309 39.0084 131.465 39.0587C131.627 39.1089 131.83 39.1564 132.076 39.201C132.69 39.3127 133.159 39.4997 133.483 39.7621C133.807 40.0245 133.969 40.4125 133.969 40.9261V41.0266C133.969 41.3001 133.918 41.5485 133.818 41.7718C133.723 41.9896 133.583 42.1766 133.399 42.3329C133.215 42.4892 132.992 42.6092 132.729 42.693C132.467 42.7767 132.171 42.8186 131.842 42.8186C131.456 42.8186 131.116 42.7655 130.82 42.6595C130.53 42.5478 130.287 42.3971 130.091 42.2073C129.896 42.0119 129.748 41.7858 129.648 41.529C129.547 41.2666 129.497 40.9819 129.497 40.6748V40.4236H130.602V40.6246C130.602 40.9763 130.703 41.2582 130.904 41.4704C131.11 41.6769 131.429 41.7802 131.858 41.7802C132.193 41.7802 132.442 41.7076 132.604 41.5625C132.766 41.4173 132.847 41.2443 132.847 41.0433C132.847 40.9484 132.83 40.8591 132.796 40.7753C132.763 40.686 132.704 40.6079 132.62 40.5409C132.537 40.4683 132.422 40.4041 132.277 40.3483C132.132 40.2924 131.948 40.245 131.724 40.2059C131.429 40.1557 131.158 40.0915 130.912 40.0133C130.667 39.9296 130.452 39.8207 130.267 39.6867C130.089 39.5527 129.949 39.3852 129.849 39.1843C129.748 38.9833 129.698 38.7377 129.698 38.4474V38.3971C129.698 38.1571 129.745 37.9365 129.84 37.7356C129.941 37.529 130.078 37.3504 130.251 37.1996C130.429 37.0489 130.641 36.9317 130.887 36.8479C131.138 36.7642 131.417 36.7223 131.724 36.7223C132.071 36.7223 132.378 36.7726 132.646 36.8731C132.914 36.968 133.137 37.0992 133.315 37.2666C133.5 37.4341 133.636 37.6267 133.726 37.8444C133.821 38.0622 133.868 38.291 133.868 38.5311V38.8326H132.763V38.6316Z" fill="white"/>
<path d="M138.996 36.8396V40.6748C138.996 41.3448 138.817 41.8695 138.46 42.2492C138.108 42.6288 137.583 42.8186 136.885 42.8186C136.188 42.8186 135.66 42.6288 135.303 42.2492C134.951 41.8695 134.775 41.3448 134.775 40.6748V36.8396H135.88V40.6748C135.88 41.021 135.961 41.2917 136.123 41.4871C136.285 41.6825 136.539 41.7802 136.885 41.7802C137.231 41.7802 137.485 41.6825 137.647 41.4871C137.809 41.2917 137.89 41.021 137.89 40.6748V36.8396H138.996Z" fill="white"/>
<path d="M141.159 40.4906V42.7013H140.053V36.8396H142.348C142.649 36.8396 142.912 36.8898 143.135 36.9903C143.358 37.0852 143.542 37.2136 143.688 37.3755C143.838 37.5318 143.95 37.7132 144.023 37.9198C144.101 38.1208 144.14 38.3273 144.14 38.5395V38.7405C144.14 38.9582 144.101 39.1731 144.023 39.3852C143.95 39.5918 143.838 39.7788 143.688 39.9463C143.542 40.1082 143.358 40.2394 143.135 40.3399C142.912 40.4404 142.649 40.4906 142.348 40.4906H141.159ZM141.159 39.4355H142.239C142.485 39.4355 142.677 39.3685 142.817 39.2345C142.962 39.1005 143.034 38.9275 143.034 38.7153V38.6148C143.034 38.4027 142.962 38.2296 142.817 38.0957C142.677 37.9617 142.485 37.8947 142.239 37.8947H141.159V39.4355Z" fill="white"/>
<path d="M148.137 41.4453H146.144L145.859 42.7013H144.703L146.102 36.8396H148.179L149.577 42.7013H148.421L148.137 41.4453ZM146.378 40.3901H147.894L147.216 37.3922H147.065L146.378 40.3901Z" fill="white"/>
<path d="M149.906 36.8396H151.045L152.192 42.1487H152.343L153.49 36.8396H154.629L153.306 42.7013H151.229L149.906 36.8396Z" fill="white"/>
<path d="M155.519 36.8396H159.221V37.8947H156.625V39.2345H159.12V40.2896H156.625V41.6462H159.321V42.7013H155.519V36.8396Z" fill="white"/>
<path d="M162.137 39.737H164.65V42.7013H163.645V42.0482H163.494C163.427 42.2659 163.299 42.4501 163.109 42.6009C162.919 42.746 162.634 42.8186 162.255 42.8186C161.987 42.8186 161.735 42.7683 161.501 42.6679C161.266 42.5674 161.063 42.4194 160.89 42.224C160.717 42.0231 160.58 41.7774 160.479 41.4871C160.379 41.1912 160.329 40.8479 160.329 40.4571V39.0838C160.329 38.7042 160.382 38.3692 160.488 38.0789C160.599 37.783 160.75 37.5346 160.94 37.3336C161.135 37.1326 161.367 36.9819 161.635 36.8814C161.903 36.7754 162.199 36.7223 162.523 36.7223C162.857 36.7223 163.156 36.7781 163.419 36.8898C163.681 36.9959 163.904 37.1466 164.088 37.342C164.273 37.5318 164.412 37.7579 164.507 38.0203C164.602 38.2771 164.65 38.5534 164.65 38.8493V38.9498H163.544V38.8493C163.544 38.4976 163.452 38.2324 163.268 38.0538C163.089 37.8696 162.835 37.7774 162.506 37.7774C162.193 37.7774 161.936 37.8835 161.735 38.0957C161.534 38.3022 161.434 38.6595 161.434 39.1675V40.4069C161.434 41.3113 161.802 41.7635 162.539 41.7635C162.869 41.7635 163.117 41.6769 163.285 41.5039C163.458 41.3252 163.544 41.088 163.544 40.7921H162.137V39.737Z" fill="white"/>
<path d="M168.646 41.4453H166.653L166.369 42.7013H165.213L166.612 36.8396H168.688L170.087 42.7013H168.931L168.646 41.4453ZM166.888 40.3901H168.404L167.725 37.3922H167.575L166.888 40.3901Z" fill="white"/>
<mask id="path-3-outside-1_164_2" maskUnits="userSpaceOnUse" x="9.51431" y="6.0238" width="164" height="29" fill="black">
<rect fill="white" x="9.51431" y="6.0238" width="164" height="29"/>
<path d="M29.9258 29.7204C29.9258 30.1366 29.7834 30.4979 29.4987 30.8046C29.214 31.0893 28.8526 31.2316 28.4146 31.2316H27.5276C27.1115 31.2316 26.7501 31.0893 26.4435 30.8046C26.1588 30.4979 26.0164 30.1366 26.0164 29.7204V19.832C26.0164 19.7444 25.9726 19.6897 25.885 19.6678C25.8193 19.6459 25.7645 19.6678 25.7207 19.7335L22.567 26.2381C22.5013 26.4134 22.3589 26.5667 22.1399 26.6981C21.9209 26.8295 21.7128 26.939 21.5157 27.0266C21.3405 27.0923 21.2529 27.1251 21.2529 27.1251C20.574 27.1251 20.125 26.8295 19.906 26.2381L16.7522 19.7335C16.7303 19.6678 16.6755 19.6459 16.5879 19.6678C16.5003 19.6897 16.4565 19.7444 16.4565 19.832V29.7204C16.4565 30.1366 16.3032 30.4979 15.9966 30.8046C15.7119 31.0893 15.3615 31.2316 14.9453 31.2316H14.0255C13.6094 31.2316 13.248 31.0893 12.9414 30.8046C12.6567 30.4979 12.5143 30.1366 12.5143 29.7204V10.535C12.5143 10.097 12.6567 9.73559 12.9414 9.45088C13.248 9.16616 13.6094 9.0238 14.0255 9.0238H14.9782C15.5914 9.0238 16.0404 9.30852 16.3251 9.87795C16.4346 10.1189 16.6536 10.5897 16.9822 11.2906C17.3326 11.9695 17.7377 12.7799 18.1977 13.7216C18.6576 14.6634 19.1285 15.6599 19.6103 16.7111C20.114 17.7405 20.5959 18.726 21.0558 19.6678C21.0996 19.7554 21.1543 19.7992 21.22 19.7992C21.3076 19.7992 21.3733 19.7554 21.4172 19.6678L26.115 9.87795C26.3997 9.30852 26.8596 9.0238 27.4947 9.0238H28.4146C28.8526 9.0238 29.214 9.16616 29.4987 9.45088C29.7834 9.73559 29.9258 10.097 29.9258 10.535V29.7204Z"/>
<path d="M47.6437 26.8952C47.6437 27.6836 47.4466 28.4064 47.0523 29.0634C46.6581 29.7204 46.1325 30.2461 45.4755 30.6403C44.8184 31.0345 44.0957 31.2316 43.3072 31.2316H36.9997C36.2112 31.2316 35.4776 31.0345 34.7986 30.6403C34.1416 30.2461 33.616 29.7204 33.2217 29.0634C32.8275 28.4064 32.6304 27.6836 32.6304 26.8952V13.3931C32.6304 12.5827 32.8275 11.8491 33.2217 11.192C33.616 10.535 34.1416 10.0094 34.7986 9.61514C35.4776 9.22091 36.2112 9.0238 36.9997 9.0238H43.3072C44.0957 9.0238 44.8184 9.22091 45.4755 9.61514C46.1325 10.0094 46.6581 10.535 47.0523 11.192C47.4466 11.8491 47.6437 12.5827 47.6437 13.3931V26.8952ZM43.7343 26.8952V13.3931C43.7343 13.0865 43.5919 12.9332 43.3072 12.9332H36.9997C36.8902 12.9332 36.7807 12.977 36.6712 13.0646C36.5836 13.1522 36.5398 13.2617 36.5398 13.3931V26.8952C36.5398 27.0047 36.5836 27.1142 36.6712 27.2237C36.7807 27.3113 36.8902 27.3551 36.9997 27.3551H43.3072C43.4167 27.3551 43.5153 27.3113 43.6029 27.2237C43.6905 27.1142 43.7343 27.0047 43.7343 26.8952Z"/>
<path d="M64.5644 29.7204C64.5644 30.1366 64.4111 30.4979 64.1045 30.8046C63.8198 31.0893 63.4803 31.2316 63.0861 31.2316H51.785C51.3908 31.2316 51.0404 31.0893 50.7338 30.8046C50.4491 30.4979 50.3067 30.1366 50.3067 29.7204V10.535C50.3067 10.097 50.4491 9.73559 50.7338 9.45088C51.0404 9.16616 51.3908 9.0238 51.785 9.0238H52.7049C53.121 9.0238 53.4714 9.16616 53.7562 9.45088C54.0628 9.73559 54.2161 10.097 54.2161 10.535V26.928C54.2161 27.2128 54.3475 27.3551 54.6103 27.3551H63.0861C63.4803 27.3551 63.8198 27.4975 64.1045 27.7822C64.4111 28.0669 64.5644 28.4283 64.5644 28.8663V29.7204Z"/>
<path d="M81.4395 29.7204C81.4395 30.1366 81.2861 30.4979 80.9795 30.8046C80.6948 31.0893 80.3553 31.2316 79.9611 31.2316H68.6601C68.2659 31.2316 67.9155 31.0893 67.6088 30.8046C67.3241 30.4979 67.1818 30.1366 67.1818 29.7204V10.535C67.1818 10.097 67.3241 9.73559 67.6088 9.45088C67.9155 9.16616 68.2659 9.0238 68.6601 9.0238H79.9611C80.3553 9.0238 80.6948 9.16616 80.9795 9.45088C81.2861 9.73559 81.4395 10.097 81.4395 10.535V11.422C81.4395 11.8381 81.2861 12.1995 80.9795 12.5061C80.6948 12.7908 80.3553 12.9332 79.9611 12.9332H71.4854C71.2225 12.9332 71.0911 13.0755 71.0911 13.3602V17.7295C71.0911 18.0361 71.2225 18.1895 71.4854 18.1895H78.7785C79.2165 18.1895 79.5779 18.3318 79.8626 18.6165C80.1473 18.9012 80.2896 19.2517 80.2896 19.6678V20.5876C80.2896 21.0038 80.1473 21.3651 79.8626 21.6717C79.5779 21.9565 79.2165 22.0988 78.7785 22.0988H71.4854C71.2225 22.0988 71.0911 22.2302 71.0911 22.493V26.928C71.0911 27.2128 71.2225 27.3551 71.4854 27.3551H79.9611C80.3553 27.3551 80.6948 27.4975 80.9795 27.7822C81.2861 28.0669 81.4395 28.4283 81.4395 28.8663V29.7204Z"/>
<path d="M98.6759 26.8952C98.6759 27.6836 98.4788 28.4064 98.0845 29.0634C97.6903 29.7204 97.1647 30.2461 96.5076 30.6403C95.8506 31.0345 95.1279 31.2316 94.3394 31.2316H88.4261C87.6377 31.2316 86.904 31.0345 86.225 30.6403C85.568 30.2461 85.0424 29.7204 84.6481 29.0634C84.2539 28.4064 84.0568 27.6836 84.0568 26.8952V13.3931C84.0568 12.5827 84.2539 11.8491 84.6481 11.192C85.0424 10.535 85.568 10.0094 86.225 9.61514C86.904 9.22091 87.6377 9.0238 88.4261 9.0238H94.3394C95.1279 9.0238 95.8506 9.22091 96.5076 9.61514C97.1647 10.0094 97.6903 10.535 98.0845 11.192C98.4788 11.8491 98.6759 12.5827 98.6759 13.3931V14.2801C98.6759 14.6962 98.5335 15.0466 98.2488 15.3314C97.9641 15.6161 97.6027 15.7584 97.1647 15.7584H96.2777C95.8616 15.7584 95.5002 15.6161 95.1936 15.3314C94.9089 15.0466 94.7665 14.6962 94.7665 14.2801V13.3931C94.7665 13.0865 94.6241 12.9332 94.3394 12.9332H88.4261C88.1414 12.9332 87.999 13.0865 87.999 13.3931V26.8952C87.999 27.0047 88.0428 27.1142 88.1304 27.2237C88.218 27.3113 88.3166 27.3551 88.4261 27.3551H94.3394C94.4489 27.3551 94.5475 27.3113 94.6351 27.2237C94.7227 27.1142 94.7665 27.0047 94.7665 26.8952V25.9096C94.7665 25.4935 94.9089 25.1431 95.1936 24.8584C95.5002 24.5518 95.8616 24.3984 96.2777 24.3984H97.1647C97.6027 24.3984 97.9641 24.5518 98.2488 24.8584C98.5335 25.1431 98.6759 25.4935 98.6759 25.9096V26.8952Z"/>
<path d="M115.968 26.8952C115.968 27.6836 115.771 28.4064 115.377 29.0634C114.982 29.7204 114.457 30.2461 113.8 30.6403C113.143 31.0345 112.42 31.2316 111.632 31.2316H105.718C104.93 31.2316 104.196 31.0345 103.517 30.6403C102.86 30.2461 102.334 29.7204 101.94 29.0634C101.546 28.4064 101.349 27.6836 101.349 26.8952V10.535C101.349 10.097 101.491 9.73559 101.776 9.45088C102.083 9.16616 102.444 9.0238 102.86 9.0238H103.78C104.196 9.0238 104.547 9.16616 104.831 9.45088C105.138 9.73559 105.291 10.097 105.291 10.535V26.8952C105.291 27.0047 105.335 27.1142 105.423 27.2237C105.51 27.3113 105.609 27.3551 105.718 27.3551H111.632C111.741 27.3551 111.84 27.3113 111.927 27.2237C112.015 27.1142 112.059 27.0047 112.059 26.8952V10.535C112.059 10.097 112.201 9.73559 112.486 9.45088C112.792 9.16616 113.154 9.0238 113.57 9.0238H114.457C114.895 9.0238 115.256 9.16616 115.541 9.45088C115.826 9.73559 115.968 10.097 115.968 10.535V26.8952Z"/>
<path d="M132.899 29.7204C132.899 30.1366 132.745 30.4979 132.439 30.8046C132.154 31.0893 131.815 31.2316 131.42 31.2316H120.119C119.725 31.2316 119.375 31.0893 119.068 30.8046C118.783 30.4979 118.641 30.1366 118.641 29.7204V10.535C118.641 10.097 118.783 9.73559 119.068 9.45088C119.375 9.16616 119.725 9.0238 120.119 9.0238H121.039C121.455 9.0238 121.806 9.16616 122.09 9.45088C122.397 9.73559 122.55 10.097 122.55 10.535V26.928C122.55 27.2128 122.682 27.3551 122.945 27.3551H131.42C131.815 27.3551 132.154 27.4975 132.439 27.7822C132.745 28.0669 132.899 28.4283 132.899 28.8663V29.7204Z"/>
<path d="M152.5 29.2605C152.632 29.7642 152.555 30.2242 152.27 30.6403C151.986 31.0345 151.581 31.2316 151.055 31.2316H150.102C149.796 31.2316 149.5 31.1331 149.215 30.936C148.952 30.7388 148.766 30.4979 148.657 30.2132L147.408 26.4353C147.321 26.1505 147.135 26.0082 146.85 26.0082H141.232C140.948 26.0082 140.761 26.1505 140.674 26.4353L139.425 30.2132C139.316 30.4979 139.13 30.7388 138.867 30.936C138.604 31.1331 138.308 31.2316 137.98 31.2316H137.027C136.502 31.2316 136.096 31.0345 135.812 30.6403C135.505 30.2023 135.439 29.7423 135.615 29.2605L141.988 10.0422C142.097 9.73559 142.273 9.49468 142.514 9.31947C142.776 9.12236 143.061 9.0238 143.368 9.0238H144.715C145.021 9.0238 145.306 9.12236 145.569 9.31947C145.832 9.49468 146.007 9.73559 146.094 10.0422L152.5 29.2605ZM145.864 21.7046L144.222 16.6783C144.112 16.525 143.992 16.525 143.86 16.6783L142.218 21.7046C142.174 21.8141 142.185 21.9127 142.251 22.0003C142.316 22.0879 142.404 22.1317 142.514 22.1317H145.569C145.678 22.1317 145.766 22.0879 145.832 22.0003C145.897 21.9127 145.908 21.8141 145.864 21.7046Z"/>
<path d="M170.064 29.162C170.283 29.6657 170.25 30.1256 169.966 30.5417C169.637 31.0017 169.221 31.2316 168.717 31.2316H167.732C167.447 31.2316 167.162 31.144 166.878 30.9688C166.615 30.7936 166.429 30.5746 166.319 30.3118L163.231 22.9201C163.121 22.6573 162.924 22.5259 162.64 22.5259H159.584C159.3 22.5259 159.157 22.6683 159.157 22.953V29.7204C159.157 30.1366 159.004 30.4979 158.697 30.8046C158.413 31.0893 158.062 31.2316 157.646 31.2316H156.726C156.31 31.2316 155.96 31.0893 155.675 30.8046C155.412 30.4979 155.281 30.1366 155.281 29.7204V10.535C155.281 10.097 155.412 9.73559 155.675 9.45088C155.96 9.16616 156.31 9.0238 156.726 9.0238H165.629C166.418 9.0238 167.14 9.22091 167.797 9.61514C168.454 10.0094 168.98 10.535 169.374 11.192C169.768 11.8491 169.966 12.5827 169.966 13.3931V18.1895C169.966 19.0436 169.736 19.8211 169.276 20.5219C168.838 21.2009 168.257 21.7265 167.535 22.0988C167.447 22.1207 167.381 22.1974 167.337 22.3288C167.294 22.4383 167.305 22.5478 167.37 22.6573L170.064 29.162ZM166.056 18.1895V13.3931C166.056 13.0865 165.914 12.9332 165.629 12.9332H159.584C159.3 12.9332 159.157 13.0755 159.157 13.3602V18.1895C159.157 18.4742 159.3 18.6165 159.584 18.6165H165.629C165.914 18.6165 166.056 18.4742 166.056 18.1895Z"/>
</mask>
<path d="M29.9258 29.7204C29.9258 30.1366 29.7834 30.4979 29.4987 30.8046C29.214 31.0893 28.8526 31.2316 28.4146 31.2316H27.5276C27.1115 31.2316 26.7501 31.0893 26.4435 30.8046C26.1588 30.4979 26.0164 30.1366 26.0164 29.7204V19.832C26.0164 19.7444 25.9726 19.6897 25.885 19.6678C25.8193 19.6459 25.7645 19.6678 25.7207 19.7335L22.567 26.2381C22.5013 26.4134 22.3589 26.5667 22.1399 26.6981C21.9209 26.8295 21.7128 26.939 21.5157 27.0266C21.3405 27.0923 21.2529 27.1251 21.2529 27.1251C20.574 27.1251 20.125 26.8295 19.906 26.2381L16.7522 19.7335C16.7303 19.6678 16.6755 19.6459 16.5879 19.6678C16.5003 19.6897 16.4565 19.7444 16.4565 19.832V29.7204C16.4565 30.1366 16.3032 30.4979 15.9966 30.8046C15.7119 31.0893 15.3615 31.2316 14.9453 31.2316H14.0255C13.6094 31.2316 13.248 31.0893 12.9414 30.8046C12.6567 30.4979 12.5143 30.1366 12.5143 29.7204V10.535C12.5143 10.097 12.6567 9.73559 12.9414 9.45088C13.248 9.16616 13.6094 9.0238 14.0255 9.0238H14.9782C15.5914 9.0238 16.0404 9.30852 16.3251 9.87795C16.4346 10.1189 16.6536 10.5897 16.9822 11.2906C17.3326 11.9695 17.7377 12.7799 18.1977 13.7216C18.6576 14.6634 19.1285 15.6599 19.6103 16.7111C20.114 17.7405 20.5959 18.726 21.0558 19.6678C21.0996 19.7554 21.1543 19.7992 21.22 19.7992C21.3076 19.7992 21.3733 19.7554 21.4172 19.6678L26.115 9.87795C26.3997 9.30852 26.8596 9.0238 27.4947 9.0238H28.4146C28.8526 9.0238 29.214 9.16616 29.4987 9.45088C29.7834 9.73559 29.9258 10.097 29.9258 10.535V29.7204Z" fill="white"/>
<path d="M47.6437 26.8952C47.6437 27.6836 47.4466 28.4064 47.0523 29.0634C46.6581 29.7204 46.1325 30.2461 45.4755 30.6403C44.8184 31.0345 44.0957 31.2316 43.3072 31.2316H36.9997C36.2112 31.2316 35.4776 31.0345 34.7986 30.6403C34.1416 30.2461 33.616 29.7204 33.2217 29.0634C32.8275 28.4064 32.6304 27.6836 32.6304 26.8952V13.3931C32.6304 12.5827 32.8275 11.8491 33.2217 11.192C33.616 10.535 34.1416 10.0094 34.7986 9.61514C35.4776 9.22091 36.2112 9.0238 36.9997 9.0238H43.3072C44.0957 9.0238 44.8184 9.22091 45.4755 9.61514C46.1325 10.0094 46.6581 10.535 47.0523 11.192C47.4466 11.8491 47.6437 12.5827 47.6437 13.3931V26.8952ZM43.7343 26.8952V13.3931C43.7343 13.0865 43.5919 12.9332 43.3072 12.9332H36.9997C36.8902 12.9332 36.7807 12.977 36.6712 13.0646C36.5836 13.1522 36.5398 13.2617 36.5398 13.3931V26.8952C36.5398 27.0047 36.5836 27.1142 36.6712 27.2237C36.7807 27.3113 36.8902 27.3551 36.9997 27.3551H43.3072C43.4167 27.3551 43.5153 27.3113 43.6029 27.2237C43.6905 27.1142 43.7343 27.0047 43.7343 26.8952Z" fill="white"/>
<path d="M64.5644 29.7204C64.5644 30.1366 64.4111 30.4979 64.1045 30.8046C63.8198 31.0893 63.4803 31.2316 63.0861 31.2316H51.785C51.3908 31.2316 51.0404 31.0893 50.7338 30.8046C50.4491 30.4979 50.3067 30.1366 50.3067 29.7204V10.535C50.3067 10.097 50.4491 9.73559 50.7338 9.45088C51.0404 9.16616 51.3908 9.0238 51.785 9.0238H52.7049C53.121 9.0238 53.4714 9.16616 53.7562 9.45088C54.0628 9.73559 54.2161 10.097 54.2161 10.535V26.928C54.2161 27.2128 54.3475 27.3551 54.6103 27.3551H63.0861C63.4803 27.3551 63.8198 27.4975 64.1045 27.7822C64.4111 28.0669 64.5644 28.4283 64.5644 28.8663V29.7204Z" fill="white"/>
<path d="M81.4395 29.7204C81.4395 30.1366 81.2861 30.4979 80.9795 30.8046C80.6948 31.0893 80.3553 31.2316 79.9611 31.2316H68.6601C68.2659 31.2316 67.9155 31.0893 67.6088 30.8046C67.3241 30.4979 67.1818 30.1366 67.1818 29.7204V10.535C67.1818 10.097 67.3241 9.73559 67.6088 9.45088C67.9155 9.16616 68.2659 9.0238 68.6601 9.0238H79.9611C80.3553 9.0238 80.6948 9.16616 80.9795 9.45088C81.2861 9.73559 81.4395 10.097 81.4395 10.535V11.422C81.4395 11.8381 81.2861 12.1995 80.9795 12.5061C80.6948 12.7908 80.3553 12.9332 79.9611 12.9332H71.4854C71.2225 12.9332 71.0911 13.0755 71.0911 13.3602V17.7295C71.0911 18.0361 71.2225 18.1895 71.4854 18.1895H78.7785C79.2165 18.1895 79.5779 18.3318 79.8626 18.6165C80.1473 18.9012 80.2896 19.2517 80.2896 19.6678V20.5876C80.2896 21.0038 80.1473 21.3651 79.8626 21.6717C79.5779 21.9565 79.2165 22.0988 78.7785 22.0988H71.4854C71.2225 22.0988 71.0911 22.2302 71.0911 22.493V26.928C71.0911 27.2128 71.2225 27.3551 71.4854 27.3551H79.9611C80.3553 27.3551 80.6948 27.4975 80.9795 27.7822C81.2861 28.0669 81.4395 28.4283 81.4395 28.8663V29.7204Z" fill="white"/>
<path d="M98.6759 26.8952C98.6759 27.6836 98.4788 28.4064 98.0845 29.0634C97.6903 29.7204 97.1647 30.2461 96.5076 30.6403C95.8506 31.0345 95.1279 31.2316 94.3394 31.2316H88.4261C87.6377 31.2316 86.904 31.0345 86.225 30.6403C85.568 30.2461 85.0424 29.7204 84.6481 29.0634C84.2539 28.4064 84.0568 27.6836 84.0568 26.8952V13.3931C84.0568 12.5827 84.2539 11.8491 84.6481 11.192C85.0424 10.535 85.568 10.0094 86.225 9.61514C86.904 9.22091 87.6377 9.0238 88.4261 9.0238H94.3394C95.1279 9.0238 95.8506 9.22091 96.5076 9.61514C97.1647 10.0094 97.6903 10.535 98.0845 11.192C98.4788 11.8491 98.6759 12.5827 98.6759 13.3931V14.2801C98.6759 14.6962 98.5335 15.0466 98.2488 15.3314C97.9641 15.6161 97.6027 15.7584 97.1647 15.7584H96.2777C95.8616 15.7584 95.5002 15.6161 95.1936 15.3314C94.9089 15.0466 94.7665 14.6962 94.7665 14.2801V13.3931C94.7665 13.0865 94.6241 12.9332 94.3394 12.9332H88.4261C88.1414 12.9332 87.999 13.0865 87.999 13.3931V26.8952C87.999 27.0047 88.0428 27.1142 88.1304 27.2237C88.218 27.3113 88.3166 27.3551 88.4261 27.3551H94.3394C94.4489 27.3551 94.5475 27.3113 94.6351 27.2237C94.7227 27.1142 94.7665 27.0047 94.7665 26.8952V25.9096C94.7665 25.4935 94.9089 25.1431 95.1936 24.8584C95.5002 24.5518 95.8616 24.3984 96.2777 24.3984H97.1647C97.6027 24.3984 97.9641 24.5518 98.2488 24.8584C98.5335 25.1431 98.6759 25.4935 98.6759 25.9096V26.8952Z" fill="white"/>
<path d="M115.968 26.8952C115.968 27.6836 115.771 28.4064 115.377 29.0634C114.982 29.7204 114.457 30.2461 113.8 30.6403C113.143 31.0345 112.42 31.2316 111.632 31.2316H105.718C104.93 31.2316 104.196 31.0345 103.517 30.6403C102.86 30.2461 102.334 29.7204 101.94 29.0634C101.546 28.4064 101.349 27.6836 101.349 26.8952V10.535C101.349 10.097 101.491 9.73559 101.776 9.45088C102.083 9.16616 102.444 9.0238 102.86 9.0238H103.78C104.196 9.0238 104.547 9.16616 104.831 9.45088C105.138 9.73559 105.291 10.097 105.291 10.535V26.8952C105.291 27.0047 105.335 27.1142 105.423 27.2237C105.51 27.3113 105.609 27.3551 105.718 27.3551H111.632C111.741 27.3551 111.84 27.3113 111.927 27.2237C112.015 27.1142 112.059 27.0047 112.059 26.8952V10.535C112.059 10.097 112.201 9.73559 112.486 9.45088C112.792 9.16616 113.154 9.0238 113.57 9.0238H114.457C114.895 9.0238 115.256 9.16616 115.541 9.45088C115.826 9.73559 115.968 10.097 115.968 10.535V26.8952Z" fill="white"/>
<path d="M132.899 29.7204C132.899 30.1366 132.745 30.4979 132.439 30.8046C132.154 31.0893 131.815 31.2316 131.42 31.2316H120.119C119.725 31.2316 119.375 31.0893 119.068 30.8046C118.783 30.4979 118.641 30.1366 118.641 29.7204V10.535C118.641 10.097 118.783 9.73559 119.068 9.45088C119.375 9.16616 119.725 9.0238 120.119 9.0238H121.039C121.455 9.0238 121.806 9.16616 122.09 9.45088C122.397 9.73559 122.55 10.097 122.55 10.535V26.928C122.55 27.2128 122.682 27.3551 122.945 27.3551H131.42C131.815 27.3551 132.154 27.4975 132.439 27.7822C132.745 28.0669 132.899 28.4283 132.899 28.8663V29.7204Z" fill="white"/>
<path d="M152.5 29.2605C152.632 29.7642 152.555 30.2242 152.27 30.6403C151.986 31.0345 151.581 31.2316 151.055 31.2316H150.102C149.796 31.2316 149.5 31.1331 149.215 30.936C148.952 30.7388 148.766 30.4979 148.657 30.2132L147.408 26.4353C147.321 26.1505 147.135 26.0082 146.85 26.0082H141.232C140.948 26.0082 140.761 26.1505 140.674 26.4353L139.425 30.2132C139.316 30.4979 139.13 30.7388 138.867 30.936C138.604 31.1331 138.308 31.2316 137.98 31.2316H137.027C136.502 31.2316 136.096 31.0345 135.812 30.6403C135.505 30.2023 135.439 29.7423 135.615 29.2605L141.988 10.0422C142.097 9.73559 142.273 9.49468 142.514 9.31947C142.776 9.12236 143.061 9.0238 143.368 9.0238H144.715C145.021 9.0238 145.306 9.12236 145.569 9.31947C145.832 9.49468 146.007 9.73559 146.094 10.0422L152.5 29.2605ZM145.864 21.7046L144.222 16.6783C144.112 16.525 143.992 16.525 143.86 16.6783L142.218 21.7046C142.174 21.8141 142.185 21.9127 142.251 22.0003C142.316 22.0879 142.404 22.1317 142.514 22.1317H145.569C145.678 22.1317 145.766 22.0879 145.832 22.0003C145.897 21.9127 145.908 21.8141 145.864 21.7046Z" fill="white"/>
<path d="M170.064 29.162C170.283 29.6657 170.25 30.1256 169.966 30.5417C169.637 31.0017 169.221 31.2316 168.717 31.2316H167.732C167.447 31.2316 167.162 31.144 166.878 30.9688C166.615 30.7936 166.429 30.5746 166.319 30.3118L163.231 22.9201C163.121 22.6573 162.924 22.5259 162.64 22.5259H159.584C159.3 22.5259 159.157 22.6683 159.157 22.953V29.7204C159.157 30.1366 159.004 30.4979 158.697 30.8046C158.413 31.0893 158.062 31.2316 157.646 31.2316H156.726C156.31 31.2316 155.96 31.0893 155.675 30.8046C155.412 30.4979 155.281 30.1366 155.281 29.7204V10.535C155.281 10.097 155.412 9.73559 155.675 9.45088C155.96 9.16616 156.31 9.0238 156.726 9.0238H165.629C166.418 9.0238 167.14 9.22091 167.797 9.61514C168.454 10.0094 168.98 10.535 169.374 11.192C169.768 11.8491 169.966 12.5827 169.966 13.3931V18.1895C169.966 19.0436 169.736 19.8211 169.276 20.5219C168.838 21.2009 168.257 21.7265 167.535 22.0988C167.447 22.1207 167.381 22.1974 167.337 22.3288C167.294 22.4383 167.305 22.5478 167.37 22.6573L170.064 29.162ZM166.056 18.1895V13.3931C166.056 13.0865 165.914 12.9332 165.629 12.9332H159.584C159.3 12.9332 159.157 13.0755 159.157 13.3602V18.1895C159.157 18.4742 159.3 18.6165 159.584 18.6165H165.629C165.914 18.6165 166.056 18.4742 166.056 18.1895Z" fill="white"/>
<path d="M29.9258 29.7204C29.9258 30.1366 29.7834 30.4979 29.4987 30.8046C29.214 31.0893 28.8526 31.2316 28.4146 31.2316H27.5276C27.1115 31.2316 26.7501 31.0893 26.4435 30.8046C26.1588 30.4979 26.0164 30.1366 26.0164 29.7204V19.832C26.0164 19.7444 25.9726 19.6897 25.885 19.6678C25.8193 19.6459 25.7645 19.6678 25.7207 19.7335L22.567 26.2381C22.5013 26.4134 22.3589 26.5667 22.1399 26.6981C21.9209 26.8295 21.7128 26.939 21.5157 27.0266C21.3405 27.0923 21.2529 27.1251 21.2529 27.1251C20.574 27.1251 20.125 26.8295 19.906 26.2381L16.7522 19.7335C16.7303 19.6678 16.6755 19.6459 16.5879 19.6678C16.5003 19.6897 16.4565 19.7444 16.4565 19.832V29.7204C16.4565 30.1366 16.3032 30.4979 15.9966 30.8046C15.7119 31.0893 15.3615 31.2316 14.9453 31.2316H14.0255C13.6094 31.2316 13.248 31.0893 12.9414 30.8046C12.6567 30.4979 12.5143 30.1366 12.5143 29.7204V10.535C12.5143 10.097 12.6567 9.73559 12.9414 9.45088C13.248 9.16616 13.6094 9.0238 14.0255 9.0238H14.9782C15.5914 9.0238 16.0404 9.30852 16.3251 9.87795C16.4346 10.1189 16.6536 10.5897 16.9822 11.2906C17.3326 11.9695 17.7377 12.7799 18.1977 13.7216C18.6576 14.6634 19.1285 15.6599 19.6103 16.7111C20.114 17.7405 20.5959 18.726 21.0558 19.6678C21.0996 19.7554 21.1543 19.7992 21.22 19.7992C21.3076 19.7992 21.3733 19.7554 21.4172 19.6678L26.115 9.87795C26.3997 9.30852 26.8596 9.0238 27.4947 9.0238H28.4146C28.8526 9.0238 29.214 9.16616 29.4987 9.45088C29.7834 9.73559 29.9258 10.097 29.9258 10.535V29.7204Z" stroke="#282828" stroke-width="6" mask="url(#path-3-outside-1_164_2)"/>
<path d="M47.6437 26.8952C47.6437 27.6836 47.4466 28.4064 47.0523 29.0634C46.6581 29.7204 46.1325 30.2461 45.4755 30.6403C44.8184 31.0345 44.0957 31.2316 43.3072 31.2316H36.9997C36.2112 31.2316 35.4776 31.0345 34.7986 30.6403C34.1416 30.2461 33.616 29.7204 33.2217 29.0634C32.8275 28.4064 32.6304 27.6836 32.6304 26.8952V13.3931C32.6304 12.5827 32.8275 11.8491 33.2217 11.192C33.616 10.535 34.1416 10.0094 34.7986 9.61514C35.4776 9.22091 36.2112 9.0238 36.9997 9.0238H43.3072C44.0957 9.0238 44.8184 9.22091 45.4755 9.61514C46.1325 10.0094 46.6581 10.535 47.0523 11.192C47.4466 11.8491 47.6437 12.5827 47.6437 13.3931V26.8952ZM43.7343 26.8952V13.3931C43.7343 13.0865 43.5919 12.9332 43.3072 12.9332H36.9997C36.8902 12.9332 36.7807 12.977 36.6712 13.0646C36.5836 13.1522 36.5398 13.2617 36.5398 13.3931V26.8952C36.5398 27.0047 36.5836 27.1142 36.6712 27.2237C36.7807 27.3113 36.8902 27.3551 36.9997 27.3551H43.3072C43.4167 27.3551 43.5153 27.3113 43.6029 27.2237C43.6905 27.1142 43.7343 27.0047 43.7343 26.8952Z" stroke="#282828" stroke-width="6" mask="url(#path-3-outside-1_164_2)"/>
<path d="M64.5644 29.7204C64.5644 30.1366 64.4111 30.4979 64.1045 30.8046C63.8198 31.0893 63.4803 31.2316 63.0861 31.2316H51.785C51.3908 31.2316 51.0404 31.0893 50.7338 30.8046C50.4491 30.4979 50.3067 30.1366 50.3067 29.7204V10.535C50.3067 10.097 50.4491 9.73559 50.7338 9.45088C51.0404 9.16616 51.3908 9.0238 51.785 9.0238H52.7049C53.121 9.0238 53.4714 9.16616 53.7562 9.45088C54.0628 9.73559 54.2161 10.097 54.2161 10.535V26.928C54.2161 27.2128 54.3475 27.3551 54.6103 27.3551H63.0861C63.4803 27.3551 63.8198 27.4975 64.1045 27.7822C64.4111 28.0669 64.5644 28.4283 64.5644 28.8663V29.7204Z" stroke="#282828" stroke-width="6" mask="url(#path-3-outside-1_164_2)"/>
<path d="M81.4395 29.7204C81.4395 30.1366 81.2861 30.4979 80.9795 30.8046C80.6948 31.0893 80.3553 31.2316 79.9611 31.2316H68.6601C68.2659 31.2316 67.9155 31.0893 67.6088 30.8046C67.3241 30.4979 67.1818 30.1366 67.1818 29.7204V10.535C67.1818 10.097 67.3241 9.73559 67.6088 9.45088C67.9155 9.16616 68.2659 9.0238 68.6601 9.0238H79.9611C80.3553 9.0238 80.6948 9.16616 80.9795 9.45088C81.2861 9.73559 81.4395 10.097 81.4395 10.535V11.422C81.4395 11.8381 81.2861 12.1995 80.9795 12.5061C80.6948 12.7908 80.3553 12.9332 79.9611 12.9332H71.4854C71.2225 12.9332 71.0911 13.0755 71.0911 13.3602V17.7295C71.0911 18.0361 71.2225 18.1895 71.4854 18.1895H78.7785C79.2165 18.1895 79.5779 18.3318 79.8626 18.6165C80.1473 18.9012 80.2896 19.2517 80.2896 19.6678V20.5876C80.2896 21.0038 80.1473 21.3651 79.8626 21.6717C79.5779 21.9565 79.2165 22.0988 78.7785 22.0988H71.4854C71.2225 22.0988 71.0911 22.2302 71.0911 22.493V26.928C71.0911 27.2128 71.2225 27.3551 71.4854 27.3551H79.9611C80.3553 27.3551 80.6948 27.4975 80.9795 27.7822C81.2861 28.0669 81.4395 28.4283 81.4395 28.8663V29.7204Z" stroke="#282828" stroke-width="6" mask="url(#path-3-outside-1_164_2)"/>
<path d="M98.6759 26.8952C98.6759 27.6836 98.4788 28.4064 98.0845 29.0634C97.6903 29.7204 97.1647 30.2461 96.5076 30.6403C95.8506 31.0345 95.1279 31.2316 94.3394 31.2316H88.4261C87.6377 31.2316 86.904 31.0345 86.225 30.6403C85.568 30.2461 85.0424 29.7204 84.6481 29.0634C84.2539 28.4064 84.0568 27.6836 84.0568 26.8952V13.3931C84.0568 12.5827 84.2539 11.8491 84.6481 11.192C85.0424 10.535 85.568 10.0094 86.225 9.61514C86.904 9.22091 87.6377 9.0238 88.4261 9.0238H94.3394C95.1279 9.0238 95.8506 9.22091 96.5076 9.61514C97.1647 10.0094 97.6903 10.535 98.0845 11.192C98.4788 11.8491 98.6759 12.5827 98.6759 13.3931V14.2801C98.6759 14.6962 98.5335 15.0466 98.2488 15.3314C97.9641 15.6161 97.6027 15.7584 97.1647 15.7584H96.2777C95.8616 15.7584 95.5002 15.6161 95.1936 15.3314C94.9089 15.0466 94.7665 14.6962 94.7665 14.2801V13.3931C94.7665 13.0865 94.6241 12.9332 94.3394 12.9332H88.4261C88.1414 12.9332 87.999 13.0865 87.999 13.3931V26.8952C87.999 27.0047 88.0428 27.1142 88.1304 27.2237C88.218 27.3113 88.3166 27.3551 88.4261 27.3551H94.3394C94.4489 27.3551 94.5475 27.3113 94.6351 27.2237C94.7227 27.1142 94.7665 27.0047 94.7665 26.8952V25.9096C94.7665 25.4935 94.9089 25.1431 95.1936 24.8584C95.5002 24.5518 95.8616 24.3984 96.2777 24.3984H97.1647C97.6027 24.3984 97.9641 24.5518 98.2488 24.8584C98.5335 25.1431 98.6759 25.4935 98.6759 25.9096V26.8952Z" stroke="#282828" stroke-width="6" mask="url(#path-3-outside-1_164_2)"/>
<path d="M115.968 26.8952C115.968 27.6836 115.771 28.4064 115.377 29.0634C114.982 29.7204 114.457 30.2461 113.8 30.6403C113.143 31.0345 112.42 31.2316 111.632 31.2316H105.718C104.93 31.2316 104.196 31.0345 103.517 30.6403C102.86 30.2461 102.334 29.7204 101.94 29.0634C101.546 28.4064 101.349 27.6836 101.349 26.8952V10.535C101.349 10.097 101.491 9.73559 101.776 9.45088C102.083 9.16616 102.444 9.0238 102.86 9.0238H103.78C104.196 9.0238 104.547 9.16616 104.831 9.45088C105.138 9.73559 105.291 10.097 105.291 10.535V26.8952C105.291 27.0047 105.335 27.1142 105.423 27.2237C105.51 27.3113 105.609 27.3551 105.718 27.3551H111.632C111.741 27.3551 111.84 27.3113 111.927 27.2237C112.015 27.1142 112.059 27.0047 112.059 26.8952V10.535C112.059 10.097 112.201 9.73559 112.486 9.45088C112.792 9.16616 113.154 9.0238 113.57 9.0238H114.457C114.895 9.0238 115.256 9.16616 115.541 9.45088C115.826 9.73559 115.968 10.097 115.968 10.535V26.8952Z" stroke="#282828" stroke-width="6" mask="url(#path-3-outside-1_164_2)"/>
<path d="M132.899 29.7204C132.899 30.1366 132.745 30.4979 132.439 30.8046C132.154 31.0893 131.815 31.2316 131.42 31.2316H120.119C119.725 31.2316 119.375 31.0893 119.068 30.8046C118.783 30.4979 118.641 30.1366 118.641 29.7204V10.535C118.641 10.097 118.783 9.73559 119.068 9.45088C119.375 9.16616 119.725 9.0238 120.119 9.0238H121.039C121.455 9.0238 121.806 9.16616 122.09 9.45088C122.397 9.73559 122.55 10.097 122.55 10.535V26.928C122.55 27.2128 122.682 27.3551 122.945 27.3551H131.42C131.815 27.3551 132.154 27.4975 132.439 27.7822C132.745 28.0669 132.899 28.4283 132.899 28.8663V29.7204Z" stroke="#282828" stroke-width="6" mask="url(#path-3-outside-1_164_2)"/>
<path d="M152.5 29.2605C152.632 29.7642 152.555 30.2242 152.27 30.6403C151.986 31.0345 151.581 31.2316 151.055 31.2316H150.102C149.796 31.2316 149.5 31.1331 149.215 30.936C148.952 30.7388 148.766 30.4979 148.657 30.2132L147.408 26.4353C147.321 26.1505 147.135 26.0082 146.85 26.0082H141.232C140.948 26.0082 140.761 26.1505 140.674 26.4353L139.425 30.2132C139.316 30.4979 139.13 30.7388 138.867 30.936C138.604 31.1331 138.308 31.2316 137.98 31.2316H137.027C136.502 31.2316 136.096 31.0345 135.812 30.6403C135.505 30.2023 135.439 29.7423 135.615 29.2605L141.988 10.0422C142.097 9.73559 142.273 9.49468 142.514 9.31947C142.776 9.12236 143.061 9.0238 143.368 9.0238H144.715C145.021 9.0238 145.306 9.12236 145.569 9.31947C145.832 9.49468 146.007 9.73559 146.094 10.0422L152.5 29.2605ZM145.864 21.7046L144.222 16.6783C144.112 16.525 143.992 16.525 143.86 16.6783L142.218 21.7046C142.174 21.8141 142.185 21.9127 142.251 22.0003C142.316 22.0879 142.404 22.1317 142.514 22.1317H145.569C145.678 22.1317 145.766 22.0879 145.832 22.0003C145.897 21.9127 145.908 21.8141 145.864 21.7046Z" stroke="#282828" stroke-width="6" mask="url(#path-3-outside-1_164_2)"/>
<path d="M170.064 29.162C170.283 29.6657 170.25 30.1256 169.966 30.5417C169.637 31.0017 169.221 31.2316 168.717 31.2316H167.732C167.447 31.2316 167.162 31.144 166.878 30.9688C166.615 30.7936 166.429 30.5746 166.319 30.3118L163.231 22.9201C163.121 22.6573 162.924 22.5259 162.64 22.5259H159.584C159.3 22.5259 159.157 22.6683 159.157 22.953V29.7204C159.157 30.1366 159.004 30.4979 158.697 30.8046C158.413 31.0893 158.062 31.2316 157.646 31.2316H156.726C156.31 31.2316 155.96 31.0893 155.675 30.8046C155.412 30.4979 155.281 30.1366 155.281 29.7204V10.535C155.281 10.097 155.412 9.73559 155.675 9.45088C155.96 9.16616 156.31 9.0238 156.726 9.0238H165.629C166.418 9.0238 167.14 9.22091 167.797 9.61514C168.454 10.0094 168.98 10.535 169.374 11.192C169.768 11.8491 169.966 12.5827 169.966 13.3931V18.1895C169.966 19.0436 169.736 19.8211 169.276 20.5219C168.838 21.2009 168.257 21.7265 167.535 22.0988C167.447 22.1207 167.381 22.1974 167.337 22.3288C167.294 22.4383 167.305 22.5478 167.37 22.6573L170.064 29.162ZM166.056 18.1895V13.3931C166.056 13.0865 165.914 12.9332 165.629 12.9332H159.584C159.3 12.9332 159.157 13.0755 159.157 13.3602V18.1895C159.157 18.4742 159.3 18.6165 159.584 18.6165H165.629C165.914 18.6165 166.056 18.4742 166.056 18.1895Z" stroke="#282828" stroke-width="6" mask="url(#path-3-outside-1_164_2)"/>
</svg>
