<svg width="173" height="53" viewBox="0 0 173 53" fill="none" xmlns="http://www.w3.org/2000/svg">
<circle cx="26.3039" cy="26.3039" r="26.3039" fill="#7A64B5"/>
<path d="M113.56 41.8625H114.063V37.3071H113.56V36.6539H115.93C116.209 36.6539 116.455 36.693 116.667 36.7712C116.885 36.8493 117.066 36.9554 117.211 37.0894C117.362 37.2233 117.474 37.3852 117.546 37.5751C117.625 37.7593 117.664 37.9603 117.664 38.178V38.2785C117.664 38.4404 117.638 38.5883 117.588 38.7223C117.538 38.8563 117.468 38.9763 117.379 39.0824C117.29 39.1884 117.184 39.2806 117.061 39.3587C116.943 39.4313 116.815 39.4871 116.675 39.5262V39.6267C116.955 39.7048 117.189 39.8556 117.379 40.0789C117.569 40.2966 117.664 40.5646 117.664 40.8828V40.9833C117.664 41.201 117.625 41.4048 117.546 41.5946C117.474 41.7788 117.362 41.9407 117.211 42.0803C117.066 42.2142 116.885 42.3203 116.667 42.3985C116.455 42.4766 116.209 42.5157 115.93 42.5157H113.56V41.8625ZM114.766 41.8625H115.88C116.209 41.8625 116.477 41.7816 116.684 41.6197C116.89 41.4522 116.994 41.2233 116.994 40.933V40.8828C116.994 40.5813 116.896 40.3441 116.701 40.171C116.505 39.9923 116.24 39.903 115.905 39.903H114.766V41.8625ZM114.766 39.2499H115.905C116.24 39.2499 116.505 39.1633 116.701 38.9903C116.896 38.8172 116.994 38.5799 116.994 38.2785V38.2282C116.994 37.9435 116.89 37.7202 116.684 37.5583C116.477 37.3908 116.209 37.3071 115.88 37.3071H114.766V39.2499Z" fill="#282828"/>
<path d="M121.954 41.7621H121.853C121.719 42.03 121.543 42.2422 121.326 42.3985C121.108 42.5548 120.832 42.6329 120.497 42.6329C120.268 42.6329 120.056 42.5939 119.86 42.5157C119.67 42.4431 119.506 42.3315 119.366 42.1808C119.232 42.03 119.126 41.843 119.048 41.6197C118.975 41.3964 118.939 41.1368 118.939 40.8409V38.3622H119.592V40.7572C119.592 41.1926 119.682 41.5108 119.86 41.7118C120.039 41.9128 120.312 42.0133 120.681 42.0133C121.077 42.0133 121.387 41.8793 121.61 41.6113C121.839 41.3378 121.954 40.9749 121.954 40.5227V38.3622H122.607V43.5373C122.607 43.7271 122.545 43.8835 122.423 44.0063C122.305 44.1291 122.152 44.1905 121.962 44.1905H119.592V43.5876H121.728C121.878 43.5876 121.954 43.5038 121.954 43.3364V41.7621Z" fill="#282828"/>
<path d="M132.033 38.446C132.033 38.2115 131.941 38.0077 131.756 37.8347C131.578 37.6616 131.324 37.5751 130.994 37.5751C130.715 37.5751 130.495 37.6337 130.333 37.7509C130.171 37.8626 130.09 38.0161 130.09 38.2115C130.09 38.312 130.109 38.4041 130.149 38.4878C130.188 38.566 130.255 38.6386 130.349 38.7055C130.45 38.767 130.578 38.8228 130.735 38.873C130.897 38.9233 131.1 38.9707 131.346 39.0154C131.96 39.127 132.429 39.3141 132.753 39.5764C133.077 39.8388 133.239 40.2268 133.239 40.7404V40.8409C133.239 41.1145 133.188 41.3629 133.088 41.5862C132.993 41.8039 132.853 41.9909 132.669 42.1473C132.485 42.3036 132.262 42.4236 131.999 42.5073C131.737 42.5911 131.441 42.6329 131.112 42.6329C130.726 42.6329 130.386 42.5799 130.09 42.4738C129.8 42.3622 129.557 42.2115 129.361 42.0216C129.166 41.8263 129.018 41.6002 128.918 41.3434C128.817 41.081 128.767 40.7963 128.767 40.4892V40.238H129.872V40.439C129.872 40.7907 129.973 41.0726 130.174 41.2847C130.38 41.4913 130.698 41.5946 131.128 41.5946C131.463 41.5946 131.712 41.522 131.874 41.3768C132.035 41.2317 132.116 41.0586 132.116 40.8577C132.116 40.7628 132.1 40.6734 132.066 40.5897C132.033 40.5004 131.974 40.4222 131.89 40.3552C131.807 40.2826 131.692 40.2184 131.547 40.1626C131.402 40.1068 131.218 40.0593 130.994 40.0203C130.698 39.97 130.428 39.9058 130.182 39.8277C129.936 39.7439 129.721 39.6351 129.537 39.5011C129.359 39.3671 129.219 39.1996 129.119 38.9986C129.018 38.7977 128.968 38.552 128.968 38.2617V38.2115C128.968 37.9714 129.015 37.7509 129.11 37.5499C129.211 37.3434 129.347 37.1647 129.52 37.014C129.699 36.8633 129.911 36.746 130.157 36.6623C130.408 36.5786 130.687 36.5367 130.994 36.5367C131.34 36.5367 131.647 36.5869 131.915 36.6874C132.183 36.7823 132.407 36.9135 132.585 37.081C132.77 37.2485 132.906 37.4411 132.996 37.6588C133.091 37.8765 133.138 38.1054 133.138 38.3455V38.6469H132.033V38.446Z" fill="#282828"/>
<path d="M138.265 36.6539V40.4892C138.265 41.1591 138.087 41.6839 137.73 42.0635C137.378 42.4431 136.853 42.6329 136.155 42.6329C135.457 42.6329 134.93 42.4431 134.573 42.0635C134.221 41.6839 134.045 41.1591 134.045 40.4892V36.6539H135.15V40.4892C135.15 40.8353 135.231 41.1061 135.393 41.3015C135.555 41.4969 135.809 41.5946 136.155 41.5946C136.501 41.5946 136.755 41.4969 136.917 41.3015C137.079 41.1061 137.16 40.8353 137.16 40.4892V36.6539H138.265Z" fill="#282828"/>
<path d="M140.429 40.305V42.5157H139.323V36.6539H141.618C141.919 36.6539 142.181 36.7042 142.405 36.8046C142.628 36.8996 142.812 37.028 142.957 37.1899C143.108 37.3462 143.22 37.5276 143.292 37.7342C143.371 37.9351 143.41 38.1417 143.41 38.3538V38.5548C143.41 38.7725 143.371 38.9875 143.292 39.1996C143.22 39.4062 143.108 39.5932 142.957 39.7607C142.812 39.9226 142.628 40.0538 142.405 40.1542C142.181 40.2547 141.919 40.305 141.618 40.305H140.429ZM140.429 39.2499H141.509C141.754 39.2499 141.947 39.1829 142.087 39.0489C142.232 38.9149 142.304 38.7418 142.304 38.5297V38.4292C142.304 38.2171 142.232 38.044 142.087 37.91C141.947 37.776 141.754 37.709 141.509 37.709H140.429V39.2499Z" fill="#282828"/>
<path d="M147.407 41.2596H145.414L145.129 42.5157H143.973L145.372 36.6539H147.448L148.847 42.5157H147.691L147.407 41.2596ZM145.648 40.2045H147.164L146.485 37.2066H146.335L145.648 40.2045Z" fill="#282828"/>
<path d="M149.176 36.6539H150.315L151.462 41.963H151.613L152.76 36.6539H153.899L152.576 42.5157H150.499L149.176 36.6539Z" fill="#282828"/>
<path d="M154.789 36.6539H158.49V37.709H155.895V39.0489H158.39V40.104H155.895V41.4606H158.591V42.5157H154.789V36.6539Z" fill="#282828"/>
<path d="M161.407 39.5513H163.919V42.5157H162.915V41.8625H162.764C162.697 42.0803 162.568 42.2645 162.379 42.4152C162.189 42.5604 161.904 42.6329 161.524 42.6329C161.256 42.6329 161.005 42.5827 160.771 42.4822C160.536 42.3817 160.333 42.2338 160.159 42.0384C159.986 41.8374 159.85 41.5918 159.749 41.3015C159.649 41.0056 159.598 40.6623 159.598 40.2715V38.8981C159.598 38.5185 159.651 38.1836 159.758 37.8933C159.869 37.5974 160.02 37.349 160.21 37.148C160.405 36.947 160.637 36.7963 160.905 36.6958C161.173 36.5897 161.469 36.5367 161.792 36.5367C162.127 36.5367 162.426 36.5925 162.688 36.7042C162.951 36.8102 163.174 36.961 163.358 37.1564C163.543 37.3462 163.682 37.5723 163.777 37.8347C163.872 38.0915 163.919 38.3678 163.919 38.6637V38.7642H162.814V38.6637C162.814 38.312 162.722 38.0468 162.538 37.8681C162.359 37.6839 162.105 37.5918 161.776 37.5918C161.463 37.5918 161.206 37.6979 161.005 37.91C160.804 38.1166 160.704 38.4739 160.704 38.9819V40.2212C160.704 41.1256 161.072 41.5778 161.809 41.5778C162.139 41.5778 162.387 41.4913 162.554 41.3182C162.727 41.1396 162.814 40.9023 162.814 40.6064H161.407V39.5513Z" fill="#282828"/>
<path d="M167.916 41.2596H165.923L165.639 42.5157H164.483L165.881 36.6539H167.958L169.357 42.5157H168.201L167.916 41.2596ZM166.158 40.2045H167.673L166.995 37.2066H166.844L166.158 40.2045Z" fill="#282828"/>
<mask id="path-3-outside-1_201_2" maskUnits="userSpaceOnUse" x="8.78418" y="5.83817" width="164" height="29" fill="black">
<rect fill="white" x="8.78418" y="5.83817" width="164" height="29"/>
<path d="M29.1956 29.5348C29.1956 29.9509 29.0533 30.3123 28.7686 30.6189C28.4838 30.9036 28.1225 31.046 27.6845 31.046H26.7975C26.3813 31.046 26.02 30.9036 25.7133 30.6189C25.4286 30.3123 25.2863 29.9509 25.2863 29.5348V19.6464C25.2863 19.5588 25.2425 19.5041 25.1549 19.4822C25.0892 19.4602 25.0344 19.4822 24.9906 19.5479L21.8368 26.0525C21.7711 26.2277 21.6288 26.381 21.4098 26.5124C21.1907 26.6438 20.9827 26.7533 20.7856 26.841C20.6104 26.9067 20.5228 26.9395 20.5228 26.9395C19.8438 26.9395 19.3948 26.6438 19.1758 26.0525L16.0221 19.5479C16.0002 19.4822 15.9454 19.4602 15.8578 19.4822C15.7702 19.5041 15.7264 19.5588 15.7264 19.6464V29.5348C15.7264 29.9509 15.5731 30.3123 15.2665 30.6189C14.9818 30.9036 14.6313 31.046 14.2152 31.046H13.2954C12.8792 31.046 12.5179 30.9036 12.2113 30.6189C11.9265 30.3123 11.7842 29.9509 11.7842 29.5348V10.3493C11.7842 9.91132 11.9265 9.54995 12.2113 9.26524C12.5179 8.98052 12.8792 8.83817 13.2954 8.83817H14.2481C14.8613 8.83817 15.3103 9.12288 15.595 9.69231C15.7045 9.93323 15.9235 10.4041 16.252 11.1049C16.6024 11.7839 17.0076 12.5942 17.4675 13.536C17.9275 14.4777 18.3983 15.4742 18.8802 16.5255C19.3839 17.5548 19.8657 18.5404 20.3256 19.4822C20.3695 19.5698 20.4242 19.6136 20.4899 19.6136C20.5775 19.6136 20.6432 19.5698 20.687 19.4822L25.3848 9.69231C25.6695 9.12288 26.1295 8.83817 26.7646 8.83817H27.6845C28.1225 8.83817 28.4838 8.98052 28.7686 9.26524C29.0533 9.54995 29.1956 9.91132 29.1956 10.3493V29.5348Z"/>
<path d="M46.9135 26.7095C46.9135 27.498 46.7164 28.2207 46.3222 28.8778C45.928 29.5348 45.4024 30.0604 44.7453 30.4547C44.0883 30.8489 43.3655 31.046 42.5771 31.046H36.2696C35.4811 31.046 34.7474 30.8489 34.0685 30.4547C33.4114 30.0604 32.8858 29.5348 32.4916 28.8778C32.0974 28.2207 31.9003 27.498 31.9003 26.7095V13.2075C31.9003 12.3971 32.0974 11.6634 32.4916 11.0064C32.8858 10.3493 33.4114 9.82372 34.0685 9.4295C34.7474 9.03528 35.4811 8.83817 36.2696 8.83817H42.5771C43.3655 8.83817 44.0883 9.03528 44.7453 9.4295C45.4024 9.82372 45.928 10.3493 46.3222 11.0064C46.7164 11.6634 46.9135 12.3971 46.9135 13.2075V26.7095ZM43.0042 26.7095V13.2075C43.0042 12.9008 42.8618 12.7475 42.5771 12.7475H36.2696C36.16 12.7475 36.0505 12.7913 35.941 12.8789C35.8534 12.9665 35.8096 13.076 35.8096 13.2075V26.7095C35.8096 26.8191 35.8534 26.9286 35.941 27.0381C36.0505 27.1257 36.16 27.1695 36.2696 27.1695H42.5771C42.6866 27.1695 42.7852 27.1257 42.8728 27.0381C42.9604 26.9286 43.0042 26.8191 43.0042 26.7095Z"/>
<path d="M63.8343 29.5348C63.8343 29.9509 63.681 30.3123 63.3743 30.6189C63.0896 30.9036 62.7502 31.046 62.3559 31.046H51.0549C50.6607 31.046 50.3103 30.9036 50.0037 30.6189C49.7189 30.3123 49.5766 29.9509 49.5766 29.5348V10.3493C49.5766 9.91132 49.7189 9.54995 50.0037 9.26524C50.3103 8.98052 50.6607 8.83817 51.0549 8.83817H51.9748C52.3909 8.83817 52.7413 8.98052 53.026 9.26524C53.3326 9.54995 53.486 9.91132 53.486 10.3493V26.7424C53.486 27.0271 53.6174 27.1695 53.8802 27.1695H62.3559C62.7502 27.1695 63.0896 27.3118 63.3743 27.5965C63.681 27.8813 63.8343 28.2426 63.8343 28.6807V29.5348Z"/>
<path d="M80.7093 29.5348C80.7093 29.9509 80.556 30.3123 80.2494 30.6189C79.9647 30.9036 79.6252 31.046 79.231 31.046H67.93C67.5357 31.046 67.1853 30.9036 66.8787 30.6189C66.594 30.3123 66.4516 29.9509 66.4516 29.5348V10.3493C66.4516 9.91132 66.594 9.54995 66.8787 9.26524C67.1853 8.98052 67.5357 8.83817 67.93 8.83817H79.231C79.6252 8.83817 79.9647 8.98052 80.2494 9.26524C80.556 9.54995 80.7093 9.91132 80.7093 10.3493V11.2363C80.7093 11.6525 80.556 12.0138 80.2494 12.3205C79.9647 12.6052 79.6252 12.7475 79.231 12.7475H70.7552C70.4924 12.7475 70.361 12.8899 70.361 13.1746V17.5439C70.361 17.8505 70.4924 18.0038 70.7552 18.0038H78.0483C78.4863 18.0038 78.8477 18.1462 79.1324 18.4309C79.4171 18.7156 79.5595 19.066 79.5595 19.4822V20.402C79.5595 20.8181 79.4171 21.1795 79.1324 21.4861C78.8477 21.7708 78.4863 21.9132 78.0483 21.9132H70.7552C70.4924 21.9132 70.361 22.0446 70.361 22.3074V26.7424C70.361 27.0271 70.4924 27.1695 70.7552 27.1695H79.231C79.6252 27.1695 79.9647 27.3118 80.2494 27.5965C80.556 27.8813 80.7093 28.2426 80.7093 28.6807V29.5348Z"/>
<path d="M97.9457 26.7095C97.9457 27.498 97.7486 28.2207 97.3544 28.8778C96.9602 29.5348 96.4345 30.0604 95.7775 30.4547C95.1205 30.8489 94.3977 31.046 93.6093 31.046H87.696C86.9075 31.046 86.1738 30.8489 85.4949 30.4547C84.8379 30.0604 84.3122 29.5348 83.918 28.8778C83.5238 28.2207 83.3267 27.498 83.3267 26.7095V13.2075C83.3267 12.3971 83.5238 11.6634 83.918 11.0064C84.3122 10.3493 84.8379 9.82372 85.4949 9.4295C86.1738 9.03528 86.9075 8.83817 87.696 8.83817H93.6093C94.3977 8.83817 95.1205 9.03528 95.7775 9.4295C96.4345 9.82372 96.9602 10.3493 97.3544 11.0064C97.7486 11.6634 97.9457 12.3971 97.9457 13.2075V14.0945C97.9457 14.5106 97.8034 14.861 97.5187 15.1457C97.2339 15.4304 96.8726 15.5728 96.4345 15.5728H95.5476C95.1314 15.5728 94.7701 15.4304 94.4634 15.1457C94.1787 14.861 94.0364 14.5106 94.0364 14.0945V13.2075C94.0364 12.9008 93.894 12.7475 93.6093 12.7475H87.696C87.4113 12.7475 87.2689 12.9008 87.2689 13.2075V26.7095C87.2689 26.8191 87.3127 26.9286 87.4003 27.0381C87.4879 27.1257 87.5865 27.1695 87.696 27.1695H93.6093C93.7188 27.1695 93.8174 27.1257 93.905 27.0381C93.9926 26.9286 94.0364 26.8191 94.0364 26.7095V25.724C94.0364 25.3079 94.1787 24.9575 94.4634 24.6727C94.7701 24.3661 95.1314 24.2128 95.5476 24.2128H96.4345C96.8726 24.2128 97.2339 24.3661 97.5187 24.6727C97.8034 24.9575 97.9457 25.3079 97.9457 25.724V26.7095Z"/>
<path d="M115.238 26.7095C115.238 27.498 115.041 28.2207 114.647 28.8778C114.252 29.5348 113.727 30.0604 113.07 30.4547C112.413 30.8489 111.69 31.046 110.901 31.046H104.988C104.2 31.046 103.466 30.8489 102.787 30.4547C102.13 30.0604 101.604 29.5348 101.21 28.8778C100.816 28.2207 100.619 27.498 100.619 26.7095V10.3493C100.619 9.91132 100.761 9.54995 101.046 9.26524C101.352 8.98052 101.714 8.83817 102.13 8.83817H103.05C103.466 8.83817 103.816 8.98052 104.101 9.26524C104.408 9.54995 104.561 9.91132 104.561 10.3493V26.7095C104.561 26.8191 104.605 26.9286 104.692 27.0381C104.78 27.1257 104.879 27.1695 104.988 27.1695H110.901C111.011 27.1695 111.109 27.1257 111.197 27.0381C111.285 26.9286 111.328 26.8191 111.328 26.7095V10.3493C111.328 9.91132 111.471 9.54995 111.756 9.26524C112.062 8.98052 112.424 8.83817 112.84 8.83817H113.727C114.165 8.83817 114.526 8.98052 114.811 9.26524C115.095 9.54995 115.238 9.91132 115.238 10.3493V26.7095Z"/>
<path d="M132.169 29.5348C132.169 29.9509 132.015 30.3123 131.709 30.6189C131.424 30.9036 131.084 31.046 130.69 31.046H119.389C118.995 31.046 118.645 30.9036 118.338 30.6189C118.053 30.3123 117.911 29.9509 117.911 29.5348V10.3493C117.911 9.91132 118.053 9.54995 118.338 9.26524C118.645 8.98052 118.995 8.83817 119.389 8.83817H120.309C120.725 8.83817 121.076 8.98052 121.36 9.26524C121.667 9.54995 121.82 9.91132 121.82 10.3493V26.7424C121.82 27.0271 121.952 27.1695 122.214 27.1695H130.69C131.084 27.1695 131.424 27.3118 131.709 27.5965C132.015 27.8813 132.169 28.2426 132.169 28.6807V29.5348Z"/>
<path d="M151.77 29.0749C151.902 29.5786 151.825 30.0385 151.54 30.4547C151.256 30.8489 150.85 31.046 150.325 31.046H149.372C149.066 31.046 148.77 30.9474 148.485 30.7503C148.222 30.5532 148.036 30.3123 147.927 30.0276L146.678 26.2496C146.591 25.9649 146.405 25.8225 146.12 25.8225H140.502C140.217 25.8225 140.031 25.9649 139.944 26.2496L138.695 30.0276C138.586 30.3123 138.4 30.5532 138.137 30.7503C137.874 30.9474 137.578 31.046 137.25 31.046H136.297C135.771 31.046 135.366 30.8489 135.082 30.4547C134.775 30.0166 134.709 29.5567 134.885 29.0749L141.258 9.85657C141.367 9.54995 141.542 9.30904 141.783 9.13383C142.046 8.93672 142.331 8.83817 142.638 8.83817H143.984C144.291 8.83817 144.576 8.93672 144.839 9.13383C145.101 9.30904 145.277 9.54995 145.364 9.85657L151.77 29.0749ZM145.134 21.519L143.492 16.4926C143.382 16.3393 143.262 16.3393 143.13 16.4926L141.488 21.519C141.444 21.6285 141.455 21.727 141.521 21.8146C141.586 21.9022 141.674 21.946 141.783 21.946H144.839C144.948 21.946 145.036 21.9022 145.101 21.8146C145.167 21.727 145.178 21.6285 145.134 21.519Z"/>
<path d="M169.334 28.9763C169.553 29.48 169.52 29.94 169.235 30.3561C168.907 30.816 168.491 31.046 167.987 31.046H167.002C166.717 31.046 166.432 30.9584 166.147 30.7832C165.885 30.608 165.698 30.389 165.589 30.1261L162.501 22.7345C162.391 22.4717 162.194 22.3403 161.909 22.3403H158.854C158.57 22.3403 158.427 22.4826 158.427 22.7673V29.5348C158.427 29.9509 158.274 30.3123 157.967 30.6189C157.683 30.9036 157.332 31.046 156.916 31.046H155.996C155.58 31.046 155.23 30.9036 154.945 30.6189C154.682 30.3123 154.551 29.9509 154.551 29.5348V10.3493C154.551 9.91132 154.682 9.54995 154.945 9.26524C155.23 8.98052 155.58 8.83817 155.996 8.83817H164.899C165.687 8.83817 166.41 9.03528 167.067 9.4295C167.724 9.82372 168.25 10.3493 168.644 11.0064C169.038 11.6634 169.235 12.3971 169.235 13.2075V18.0038C169.235 18.858 169.005 19.6355 168.546 20.3363C168.108 21.0152 167.527 21.5409 166.804 21.9132C166.717 21.9351 166.651 22.0117 166.607 22.1431C166.563 22.2527 166.574 22.3622 166.64 22.4717L169.334 28.9763ZM165.326 18.0038V13.2075C165.326 12.9008 165.184 12.7475 164.899 12.7475H158.854C158.57 12.7475 158.427 12.8899 158.427 13.1746V18.0038C158.427 18.2885 158.57 18.4309 158.854 18.4309H164.899C165.184 18.4309 165.326 18.2885 165.326 18.0038Z"/>
</mask>
<path d="M29.1956 29.5348C29.1956 29.9509 29.0533 30.3123 28.7686 30.6189C28.4838 30.9036 28.1225 31.046 27.6845 31.046H26.7975C26.3813 31.046 26.02 30.9036 25.7133 30.6189C25.4286 30.3123 25.2863 29.9509 25.2863 29.5348V19.6464C25.2863 19.5588 25.2425 19.5041 25.1549 19.4822C25.0892 19.4602 25.0344 19.4822 24.9906 19.5479L21.8368 26.0525C21.7711 26.2277 21.6288 26.381 21.4098 26.5124C21.1907 26.6438 20.9827 26.7533 20.7856 26.841C20.6104 26.9067 20.5228 26.9395 20.5228 26.9395C19.8438 26.9395 19.3948 26.6438 19.1758 26.0525L16.0221 19.5479C16.0002 19.4822 15.9454 19.4602 15.8578 19.4822C15.7702 19.5041 15.7264 19.5588 15.7264 19.6464V29.5348C15.7264 29.9509 15.5731 30.3123 15.2665 30.6189C14.9818 30.9036 14.6313 31.046 14.2152 31.046H13.2954C12.8792 31.046 12.5179 30.9036 12.2113 30.6189C11.9265 30.3123 11.7842 29.9509 11.7842 29.5348V10.3493C11.7842 9.91132 11.9265 9.54995 12.2113 9.26524C12.5179 8.98052 12.8792 8.83817 13.2954 8.83817H14.2481C14.8613 8.83817 15.3103 9.12288 15.595 9.69231C15.7045 9.93323 15.9235 10.4041 16.252 11.1049C16.6024 11.7839 17.0076 12.5942 17.4675 13.536C17.9275 14.4777 18.3983 15.4742 18.8802 16.5255C19.3839 17.5548 19.8657 18.5404 20.3256 19.4822C20.3695 19.5698 20.4242 19.6136 20.4899 19.6136C20.5775 19.6136 20.6432 19.5698 20.687 19.4822L25.3848 9.69231C25.6695 9.12288 26.1295 8.83817 26.7646 8.83817H27.6845C28.1225 8.83817 28.4838 8.98052 28.7686 9.26524C29.0533 9.54995 29.1956 9.91132 29.1956 10.3493V29.5348Z" fill="#282828"/>
<path d="M46.9135 26.7095C46.9135 27.498 46.7164 28.2207 46.3222 28.8778C45.928 29.5348 45.4024 30.0604 44.7453 30.4547C44.0883 30.8489 43.3655 31.046 42.5771 31.046H36.2696C35.4811 31.046 34.7474 30.8489 34.0685 30.4547C33.4114 30.0604 32.8858 29.5348 32.4916 28.8778C32.0974 28.2207 31.9003 27.498 31.9003 26.7095V13.2075C31.9003 12.3971 32.0974 11.6634 32.4916 11.0064C32.8858 10.3493 33.4114 9.82372 34.0685 9.4295C34.7474 9.03528 35.4811 8.83817 36.2696 8.83817H42.5771C43.3655 8.83817 44.0883 9.03528 44.7453 9.4295C45.4024 9.82372 45.928 10.3493 46.3222 11.0064C46.7164 11.6634 46.9135 12.3971 46.9135 13.2075V26.7095ZM43.0042 26.7095V13.2075C43.0042 12.9008 42.8618 12.7475 42.5771 12.7475H36.2696C36.16 12.7475 36.0505 12.7913 35.941 12.8789C35.8534 12.9665 35.8096 13.076 35.8096 13.2075V26.7095C35.8096 26.8191 35.8534 26.9286 35.941 27.0381C36.0505 27.1257 36.16 27.1695 36.2696 27.1695H42.5771C42.6866 27.1695 42.7852 27.1257 42.8728 27.0381C42.9604 26.9286 43.0042 26.8191 43.0042 26.7095Z" fill="#282828"/>
<path d="M63.8343 29.5348C63.8343 29.9509 63.681 30.3123 63.3743 30.6189C63.0896 30.9036 62.7502 31.046 62.3559 31.046H51.0549C50.6607 31.046 50.3103 30.9036 50.0037 30.6189C49.7189 30.3123 49.5766 29.9509 49.5766 29.5348V10.3493C49.5766 9.91132 49.7189 9.54995 50.0037 9.26524C50.3103 8.98052 50.6607 8.83817 51.0549 8.83817H51.9748C52.3909 8.83817 52.7413 8.98052 53.026 9.26524C53.3326 9.54995 53.486 9.91132 53.486 10.3493V26.7424C53.486 27.0271 53.6174 27.1695 53.8802 27.1695H62.3559C62.7502 27.1695 63.0896 27.3118 63.3743 27.5965C63.681 27.8813 63.8343 28.2426 63.8343 28.6807V29.5348Z" fill="#282828"/>
<path d="M80.7093 29.5348C80.7093 29.9509 80.556 30.3123 80.2494 30.6189C79.9647 30.9036 79.6252 31.046 79.231 31.046H67.93C67.5357 31.046 67.1853 30.9036 66.8787 30.6189C66.594 30.3123 66.4516 29.9509 66.4516 29.5348V10.3493C66.4516 9.91132 66.594 9.54995 66.8787 9.26524C67.1853 8.98052 67.5357 8.83817 67.93 8.83817H79.231C79.6252 8.83817 79.9647 8.98052 80.2494 9.26524C80.556 9.54995 80.7093 9.91132 80.7093 10.3493V11.2363C80.7093 11.6525 80.556 12.0138 80.2494 12.3205C79.9647 12.6052 79.6252 12.7475 79.231 12.7475H70.7552C70.4924 12.7475 70.361 12.8899 70.361 13.1746V17.5439C70.361 17.8505 70.4924 18.0038 70.7552 18.0038H78.0483C78.4863 18.0038 78.8477 18.1462 79.1324 18.4309C79.4171 18.7156 79.5595 19.066 79.5595 19.4822V20.402C79.5595 20.8181 79.4171 21.1795 79.1324 21.4861C78.8477 21.7708 78.4863 21.9132 78.0483 21.9132H70.7552C70.4924 21.9132 70.361 22.0446 70.361 22.3074V26.7424C70.361 27.0271 70.4924 27.1695 70.7552 27.1695H79.231C79.6252 27.1695 79.9647 27.3118 80.2494 27.5965C80.556 27.8813 80.7093 28.2426 80.7093 28.6807V29.5348Z" fill="#282828"/>
<path d="M97.9457 26.7095C97.9457 27.498 97.7486 28.2207 97.3544 28.8778C96.9602 29.5348 96.4345 30.0604 95.7775 30.4547C95.1205 30.8489 94.3977 31.046 93.6093 31.046H87.696C86.9075 31.046 86.1738 30.8489 85.4949 30.4547C84.8379 30.0604 84.3122 29.5348 83.918 28.8778C83.5238 28.2207 83.3267 27.498 83.3267 26.7095V13.2075C83.3267 12.3971 83.5238 11.6634 83.918 11.0064C84.3122 10.3493 84.8379 9.82372 85.4949 9.4295C86.1738 9.03528 86.9075 8.83817 87.696 8.83817H93.6093C94.3977 8.83817 95.1205 9.03528 95.7775 9.4295C96.4345 9.82372 96.9602 10.3493 97.3544 11.0064C97.7486 11.6634 97.9457 12.3971 97.9457 13.2075V14.0945C97.9457 14.5106 97.8034 14.861 97.5187 15.1457C97.2339 15.4304 96.8726 15.5728 96.4345 15.5728H95.5476C95.1314 15.5728 94.7701 15.4304 94.4634 15.1457C94.1787 14.861 94.0364 14.5106 94.0364 14.0945V13.2075C94.0364 12.9008 93.894 12.7475 93.6093 12.7475H87.696C87.4113 12.7475 87.2689 12.9008 87.2689 13.2075V26.7095C87.2689 26.8191 87.3127 26.9286 87.4003 27.0381C87.4879 27.1257 87.5865 27.1695 87.696 27.1695H93.6093C93.7188 27.1695 93.8174 27.1257 93.905 27.0381C93.9926 26.9286 94.0364 26.8191 94.0364 26.7095V25.724C94.0364 25.3079 94.1787 24.9575 94.4634 24.6727C94.7701 24.3661 95.1314 24.2128 95.5476 24.2128H96.4345C96.8726 24.2128 97.2339 24.3661 97.5187 24.6727C97.8034 24.9575 97.9457 25.3079 97.9457 25.724V26.7095Z" fill="#282828"/>
<path d="M115.238 26.7095C115.238 27.498 115.041 28.2207 114.647 28.8778C114.252 29.5348 113.727 30.0604 113.07 30.4547C112.413 30.8489 111.69 31.046 110.901 31.046H104.988C104.2 31.046 103.466 30.8489 102.787 30.4547C102.13 30.0604 101.604 29.5348 101.21 28.8778C100.816 28.2207 100.619 27.498 100.619 26.7095V10.3493C100.619 9.91132 100.761 9.54995 101.046 9.26524C101.352 8.98052 101.714 8.83817 102.13 8.83817H103.05C103.466 8.83817 103.816 8.98052 104.101 9.26524C104.408 9.54995 104.561 9.91132 104.561 10.3493V26.7095C104.561 26.8191 104.605 26.9286 104.692 27.0381C104.78 27.1257 104.879 27.1695 104.988 27.1695H110.901C111.011 27.1695 111.109 27.1257 111.197 27.0381C111.285 26.9286 111.328 26.8191 111.328 26.7095V10.3493C111.328 9.91132 111.471 9.54995 111.756 9.26524C112.062 8.98052 112.424 8.83817 112.84 8.83817H113.727C114.165 8.83817 114.526 8.98052 114.811 9.26524C115.095 9.54995 115.238 9.91132 115.238 10.3493V26.7095Z" fill="#282828"/>
<path d="M132.169 29.5348C132.169 29.9509 132.015 30.3123 131.709 30.6189C131.424 30.9036 131.084 31.046 130.69 31.046H119.389C118.995 31.046 118.645 30.9036 118.338 30.6189C118.053 30.3123 117.911 29.9509 117.911 29.5348V10.3493C117.911 9.91132 118.053 9.54995 118.338 9.26524C118.645 8.98052 118.995 8.83817 119.389 8.83817H120.309C120.725 8.83817 121.076 8.98052 121.36 9.26524C121.667 9.54995 121.82 9.91132 121.82 10.3493V26.7424C121.82 27.0271 121.952 27.1695 122.214 27.1695H130.69C131.084 27.1695 131.424 27.3118 131.709 27.5965C132.015 27.8813 132.169 28.2426 132.169 28.6807V29.5348Z" fill="#282828"/>
<path d="M151.77 29.0749C151.902 29.5786 151.825 30.0385 151.54 30.4547C151.256 30.8489 150.85 31.046 150.325 31.046H149.372C149.066 31.046 148.77 30.9474 148.485 30.7503C148.222 30.5532 148.036 30.3123 147.927 30.0276L146.678 26.2496C146.591 25.9649 146.405 25.8225 146.12 25.8225H140.502C140.217 25.8225 140.031 25.9649 139.944 26.2496L138.695 30.0276C138.586 30.3123 138.4 30.5532 138.137 30.7503C137.874 30.9474 137.578 31.046 137.25 31.046H136.297C135.771 31.046 135.366 30.8489 135.082 30.4547C134.775 30.0166 134.709 29.5567 134.885 29.0749L141.258 9.85657C141.367 9.54995 141.542 9.30904 141.783 9.13383C142.046 8.93672 142.331 8.83817 142.638 8.83817H143.984C144.291 8.83817 144.576 8.93672 144.839 9.13383C145.101 9.30904 145.277 9.54995 145.364 9.85657L151.77 29.0749ZM145.134 21.519L143.492 16.4926C143.382 16.3393 143.262 16.3393 143.13 16.4926L141.488 21.519C141.444 21.6285 141.455 21.727 141.521 21.8146C141.586 21.9022 141.674 21.946 141.783 21.946H144.839C144.948 21.946 145.036 21.9022 145.101 21.8146C145.167 21.727 145.178 21.6285 145.134 21.519Z" fill="#282828"/>
<path d="M169.334 28.9763C169.553 29.48 169.52 29.94 169.235 30.3561C168.907 30.816 168.491 31.046 167.987 31.046H167.002C166.717 31.046 166.432 30.9584 166.147 30.7832C165.885 30.608 165.698 30.389 165.589 30.1261L162.501 22.7345C162.391 22.4717 162.194 22.3403 161.909 22.3403H158.854C158.57 22.3403 158.427 22.4826 158.427 22.7673V29.5348C158.427 29.9509 158.274 30.3123 157.967 30.6189C157.683 30.9036 157.332 31.046 156.916 31.046H155.996C155.58 31.046 155.23 30.9036 154.945 30.6189C154.682 30.3123 154.551 29.9509 154.551 29.5348V10.3493C154.551 9.91132 154.682 9.54995 154.945 9.26524C155.23 8.98052 155.58 8.83817 155.996 8.83817H164.899C165.687 8.83817 166.41 9.03528 167.067 9.4295C167.724 9.82372 168.25 10.3493 168.644 11.0064C169.038 11.6634 169.235 12.3971 169.235 13.2075V18.0038C169.235 18.858 169.005 19.6355 168.546 20.3363C168.108 21.0152 167.527 21.5409 166.804 21.9132C166.717 21.9351 166.651 22.0117 166.607 22.1431C166.563 22.2527 166.574 22.3622 166.64 22.4717L169.334 28.9763ZM165.326 18.0038V13.2075C165.326 12.9008 165.184 12.7475 164.899 12.7475H158.854C158.57 12.7475 158.427 12.8899 158.427 13.1746V18.0038C158.427 18.2885 158.57 18.4309 158.854 18.4309H164.899C165.184 18.4309 165.326 18.2885 165.326 18.0038Z" fill="#282828"/>
<path d="M29.1956 29.5348C29.1956 29.9509 29.0533 30.3123 28.7686 30.6189C28.4838 30.9036 28.1225 31.046 27.6845 31.046H26.7975C26.3813 31.046 26.02 30.9036 25.7133 30.6189C25.4286 30.3123 25.2863 29.9509 25.2863 29.5348V19.6464C25.2863 19.5588 25.2425 19.5041 25.1549 19.4822C25.0892 19.4602 25.0344 19.4822 24.9906 19.5479L21.8368 26.0525C21.7711 26.2277 21.6288 26.381 21.4098 26.5124C21.1907 26.6438 20.9827 26.7533 20.7856 26.841C20.6104 26.9067 20.5228 26.9395 20.5228 26.9395C19.8438 26.9395 19.3948 26.6438 19.1758 26.0525L16.0221 19.5479C16.0002 19.4822 15.9454 19.4602 15.8578 19.4822C15.7702 19.5041 15.7264 19.5588 15.7264 19.6464V29.5348C15.7264 29.9509 15.5731 30.3123 15.2665 30.6189C14.9818 30.9036 14.6313 31.046 14.2152 31.046H13.2954C12.8792 31.046 12.5179 30.9036 12.2113 30.6189C11.9265 30.3123 11.7842 29.9509 11.7842 29.5348V10.3493C11.7842 9.91132 11.9265 9.54995 12.2113 9.26524C12.5179 8.98052 12.8792 8.83817 13.2954 8.83817H14.2481C14.8613 8.83817 15.3103 9.12288 15.595 9.69231C15.7045 9.93323 15.9235 10.4041 16.252 11.1049C16.6024 11.7839 17.0076 12.5942 17.4675 13.536C17.9275 14.4777 18.3983 15.4742 18.8802 16.5255C19.3839 17.5548 19.8657 18.5404 20.3256 19.4822C20.3695 19.5698 20.4242 19.6136 20.4899 19.6136C20.5775 19.6136 20.6432 19.5698 20.687 19.4822L25.3848 9.69231C25.6695 9.12288 26.1295 8.83817 26.7646 8.83817H27.6845C28.1225 8.83817 28.4838 8.98052 28.7686 9.26524C29.0533 9.54995 29.1956 9.91132 29.1956 10.3493V29.5348Z" stroke="white" stroke-width="6" mask="url(#path-3-outside-1_201_2)"/>
<path d="M46.9135 26.7095C46.9135 27.498 46.7164 28.2207 46.3222 28.8778C45.928 29.5348 45.4024 30.0604 44.7453 30.4547C44.0883 30.8489 43.3655 31.046 42.5771 31.046H36.2696C35.4811 31.046 34.7474 30.8489 34.0685 30.4547C33.4114 30.0604 32.8858 29.5348 32.4916 28.8778C32.0974 28.2207 31.9003 27.498 31.9003 26.7095V13.2075C31.9003 12.3971 32.0974 11.6634 32.4916 11.0064C32.8858 10.3493 33.4114 9.82372 34.0685 9.4295C34.7474 9.03528 35.4811 8.83817 36.2696 8.83817H42.5771C43.3655 8.83817 44.0883 9.03528 44.7453 9.4295C45.4024 9.82372 45.928 10.3493 46.3222 11.0064C46.7164 11.6634 46.9135 12.3971 46.9135 13.2075V26.7095ZM43.0042 26.7095V13.2075C43.0042 12.9008 42.8618 12.7475 42.5771 12.7475H36.2696C36.16 12.7475 36.0505 12.7913 35.941 12.8789C35.8534 12.9665 35.8096 13.076 35.8096 13.2075V26.7095C35.8096 26.8191 35.8534 26.9286 35.941 27.0381C36.0505 27.1257 36.16 27.1695 36.2696 27.1695H42.5771C42.6866 27.1695 42.7852 27.1257 42.8728 27.0381C42.9604 26.9286 43.0042 26.8191 43.0042 26.7095Z" stroke="white" stroke-width="6" mask="url(#path-3-outside-1_201_2)"/>
<path d="M63.8343 29.5348C63.8343 29.9509 63.681 30.3123 63.3743 30.6189C63.0896 30.9036 62.7502 31.046 62.3559 31.046H51.0549C50.6607 31.046 50.3103 30.9036 50.0037 30.6189C49.7189 30.3123 49.5766 29.9509 49.5766 29.5348V10.3493C49.5766 9.91132 49.7189 9.54995 50.0037 9.26524C50.3103 8.98052 50.6607 8.83817 51.0549 8.83817H51.9748C52.3909 8.83817 52.7413 8.98052 53.026 9.26524C53.3326 9.54995 53.486 9.91132 53.486 10.3493V26.7424C53.486 27.0271 53.6174 27.1695 53.8802 27.1695H62.3559C62.7502 27.1695 63.0896 27.3118 63.3743 27.5965C63.681 27.8813 63.8343 28.2426 63.8343 28.6807V29.5348Z" stroke="white" stroke-width="6" mask="url(#path-3-outside-1_201_2)"/>
<path d="M80.7093 29.5348C80.7093 29.9509 80.556 30.3123 80.2494 30.6189C79.9647 30.9036 79.6252 31.046 79.231 31.046H67.93C67.5357 31.046 67.1853 30.9036 66.8787 30.6189C66.594 30.3123 66.4516 29.9509 66.4516 29.5348V10.3493C66.4516 9.91132 66.594 9.54995 66.8787 9.26524C67.1853 8.98052 67.5357 8.83817 67.93 8.83817H79.231C79.6252 8.83817 79.9647 8.98052 80.2494 9.26524C80.556 9.54995 80.7093 9.91132 80.7093 10.3493V11.2363C80.7093 11.6525 80.556 12.0138 80.2494 12.3205C79.9647 12.6052 79.6252 12.7475 79.231 12.7475H70.7552C70.4924 12.7475 70.361 12.8899 70.361 13.1746V17.5439C70.361 17.8505 70.4924 18.0038 70.7552 18.0038H78.0483C78.4863 18.0038 78.8477 18.1462 79.1324 18.4309C79.4171 18.7156 79.5595 19.066 79.5595 19.4822V20.402C79.5595 20.8181 79.4171 21.1795 79.1324 21.4861C78.8477 21.7708 78.4863 21.9132 78.0483 21.9132H70.7552C70.4924 21.9132 70.361 22.0446 70.361 22.3074V26.7424C70.361 27.0271 70.4924 27.1695 70.7552 27.1695H79.231C79.6252 27.1695 79.9647 27.3118 80.2494 27.5965C80.556 27.8813 80.7093 28.2426 80.7093 28.6807V29.5348Z" stroke="white" stroke-width="6" mask="url(#path-3-outside-1_201_2)"/>
<path d="M97.9457 26.7095C97.9457 27.498 97.7486 28.2207 97.3544 28.8778C96.9602 29.5348 96.4345 30.0604 95.7775 30.4547C95.1205 30.8489 94.3977 31.046 93.6093 31.046H87.696C86.9075 31.046 86.1738 30.8489 85.4949 30.4547C84.8379 30.0604 84.3122 29.5348 83.918 28.8778C83.5238 28.2207 83.3267 27.498 83.3267 26.7095V13.2075C83.3267 12.3971 83.5238 11.6634 83.918 11.0064C84.3122 10.3493 84.8379 9.82372 85.4949 9.4295C86.1738 9.03528 86.9075 8.83817 87.696 8.83817H93.6093C94.3977 8.83817 95.1205 9.03528 95.7775 9.4295C96.4345 9.82372 96.9602 10.3493 97.3544 11.0064C97.7486 11.6634 97.9457 12.3971 97.9457 13.2075V14.0945C97.9457 14.5106 97.8034 14.861 97.5187 15.1457C97.2339 15.4304 96.8726 15.5728 96.4345 15.5728H95.5476C95.1314 15.5728 94.7701 15.4304 94.4634 15.1457C94.1787 14.861 94.0364 14.5106 94.0364 14.0945V13.2075C94.0364 12.9008 93.894 12.7475 93.6093 12.7475H87.696C87.4113 12.7475 87.2689 12.9008 87.2689 13.2075V26.7095C87.2689 26.8191 87.3127 26.9286 87.4003 27.0381C87.4879 27.1257 87.5865 27.1695 87.696 27.1695H93.6093C93.7188 27.1695 93.8174 27.1257 93.905 27.0381C93.9926 26.9286 94.0364 26.8191 94.0364 26.7095V25.724C94.0364 25.3079 94.1787 24.9575 94.4634 24.6727C94.7701 24.3661 95.1314 24.2128 95.5476 24.2128H96.4345C96.8726 24.2128 97.2339 24.3661 97.5187 24.6727C97.8034 24.9575 97.9457 25.3079 97.9457 25.724V26.7095Z" stroke="white" stroke-width="6" mask="url(#path-3-outside-1_201_2)"/>
<path d="M115.238 26.7095C115.238 27.498 115.041 28.2207 114.647 28.8778C114.252 29.5348 113.727 30.0604 113.07 30.4547C112.413 30.8489 111.69 31.046 110.901 31.046H104.988C104.2 31.046 103.466 30.8489 102.787 30.4547C102.13 30.0604 101.604 29.5348 101.21 28.8778C100.816 28.2207 100.619 27.498 100.619 26.7095V10.3493C100.619 9.91132 100.761 9.54995 101.046 9.26524C101.352 8.98052 101.714 8.83817 102.13 8.83817H103.05C103.466 8.83817 103.816 8.98052 104.101 9.26524C104.408 9.54995 104.561 9.91132 104.561 10.3493V26.7095C104.561 26.8191 104.605 26.9286 104.692 27.0381C104.78 27.1257 104.879 27.1695 104.988 27.1695H110.901C111.011 27.1695 111.109 27.1257 111.197 27.0381C111.285 26.9286 111.328 26.8191 111.328 26.7095V10.3493C111.328 9.91132 111.471 9.54995 111.756 9.26524C112.062 8.98052 112.424 8.83817 112.84 8.83817H113.727C114.165 8.83817 114.526 8.98052 114.811 9.26524C115.095 9.54995 115.238 9.91132 115.238 10.3493V26.7095Z" stroke="white" stroke-width="6" mask="url(#path-3-outside-1_201_2)"/>
<path d="M132.169 29.5348C132.169 29.9509 132.015 30.3123 131.709 30.6189C131.424 30.9036 131.084 31.046 130.69 31.046H119.389C118.995 31.046 118.645 30.9036 118.338 30.6189C118.053 30.3123 117.911 29.9509 117.911 29.5348V10.3493C117.911 9.91132 118.053 9.54995 118.338 9.26524C118.645 8.98052 118.995 8.83817 119.389 8.83817H120.309C120.725 8.83817 121.076 8.98052 121.36 9.26524C121.667 9.54995 121.82 9.91132 121.82 10.3493V26.7424C121.82 27.0271 121.952 27.1695 122.214 27.1695H130.69C131.084 27.1695 131.424 27.3118 131.709 27.5965C132.015 27.8813 132.169 28.2426 132.169 28.6807V29.5348Z" stroke="white" stroke-width="6" mask="url(#path-3-outside-1_201_2)"/>
<path d="M151.77 29.0749C151.902 29.5786 151.825 30.0385 151.54 30.4547C151.256 30.8489 150.85 31.046 150.325 31.046H149.372C149.066 31.046 148.77 30.9474 148.485 30.7503C148.222 30.5532 148.036 30.3123 147.927 30.0276L146.678 26.2496C146.591 25.9649 146.405 25.8225 146.12 25.8225H140.502C140.217 25.8225 140.031 25.9649 139.944 26.2496L138.695 30.0276C138.586 30.3123 138.4 30.5532 138.137 30.7503C137.874 30.9474 137.578 31.046 137.25 31.046H136.297C135.771 31.046 135.366 30.8489 135.082 30.4547C134.775 30.0166 134.709 29.5567 134.885 29.0749L141.258 9.85657C141.367 9.54995 141.542 9.30904 141.783 9.13383C142.046 8.93672 142.331 8.83817 142.638 8.83817H143.984C144.291 8.83817 144.576 8.93672 144.839 9.13383C145.101 9.30904 145.277 9.54995 145.364 9.85657L151.77 29.0749ZM145.134 21.519L143.492 16.4926C143.382 16.3393 143.262 16.3393 143.13 16.4926L141.488 21.519C141.444 21.6285 141.455 21.727 141.521 21.8146C141.586 21.9022 141.674 21.946 141.783 21.946H144.839C144.948 21.946 145.036 21.9022 145.101 21.8146C145.167 21.727 145.178 21.6285 145.134 21.519Z" stroke="white" stroke-width="6" mask="url(#path-3-outside-1_201_2)"/>
<path d="M169.334 28.9763C169.553 29.48 169.52 29.94 169.235 30.3561C168.907 30.816 168.491 31.046 167.987 31.046H167.002C166.717 31.046 166.432 30.9584 166.147 30.7832C165.885 30.608 165.698 30.389 165.589 30.1261L162.501 22.7345C162.391 22.4717 162.194 22.3403 161.909 22.3403H158.854C158.57 22.3403 158.427 22.4826 158.427 22.7673V29.5348C158.427 29.9509 158.274 30.3123 157.967 30.6189C157.683 30.9036 157.332 31.046 156.916 31.046H155.996C155.58 31.046 155.23 30.9036 154.945 30.6189C154.682 30.3123 154.551 29.9509 154.551 29.5348V10.3493C154.551 9.91132 154.682 9.54995 154.945 9.26524C155.23 8.98052 155.58 8.83817 155.996 8.83817H164.899C165.687 8.83817 166.41 9.03528 167.067 9.4295C167.724 9.82372 168.25 10.3493 168.644 11.0064C169.038 11.6634 169.235 12.3971 169.235 13.2075V18.0038C169.235 18.858 169.005 19.6355 168.546 20.3363C168.108 21.0152 167.527 21.5409 166.804 21.9132C166.717 21.9351 166.651 22.0117 166.607 22.1431C166.563 22.2527 166.574 22.3622 166.64 22.4717L169.334 28.9763ZM165.326 18.0038V13.2075C165.326 12.9008 165.184 12.7475 164.899 12.7475H158.854C158.57 12.7475 158.427 12.8899 158.427 13.1746V18.0038C158.427 18.2885 158.57 18.4309 158.854 18.4309H164.899C165.184 18.4309 165.326 18.2885 165.326 18.0038Z" stroke="white" stroke-width="6" mask="url(#path-3-outside-1_201_2)"/>
</svg>
